<svg width="92" height="92" viewBox="0 0 92 92" fill="none" xmlns="http://www.w3.org/2000/svg">
<g clip-path="url(#clip0_139_26)">
<path d="M46 7.6665C31.165 7.6665 19.1666 19.6648 19.1666 34.4998C19.1666 41.1698 21.0833 47.4182 24.5716 53.0532C28.2133 58.9565 33.005 64.0165 36.685 69.9198C38.4866 72.7948 39.79 75.4782 41.17 78.5832C42.1666 80.6915 42.9716 84.3332 46 84.3332C49.0283 84.3332 49.8333 80.6915 50.7916 78.5832C52.21 75.4782 53.475 72.7948 55.2766 69.9198C58.9566 64.0548 63.7483 58.9948 67.39 53.0532C70.9166 47.4182 72.8333 41.1698 72.8333 34.4998C72.8333 19.6648 60.835 7.6665 46 7.6665ZM46 45.0415C40.71 45.0415 36.4166 40.7482 36.4166 35.4582C36.4166 30.1682 40.71 25.8748 46 25.8748C51.29 25.8748 55.5833 30.1682 55.5833 35.4582C55.5833 40.7482 51.29 45.0415 46 45.0415Z" fill="black"/>
</g>
<defs>
<clipPath id="clip0_139_26">
<rect width="92" height="92" fill="white"/>
</clipPath>
</defs>
</svg>
