<svg width="92" height="92" viewBox="0 0 92 92" fill="none" xmlns="http://www.w3.org/2000/svg">
<path d="M23.9717 48.3099C23.9717 50.3422 22.324 51.9899 20.2917 51.9899C18.2594 51.9899 16.6117 50.3422 16.6117 48.3099C16.6117 46.2776 18.2594 44.6299 20.2917 44.6299C22.324 44.6299 23.9717 46.2776 23.9717 48.3099ZM40.3924 48.3099C40.3924 50.3422 38.7447 51.9899 36.7124 51.9899C34.6802 51.9899 33.0324 50.3422 33.0324 48.3099C33.0324 46.2776 34.6802 44.6299 36.7124 44.6299C38.7447 44.6299 40.3924 46.2776 40.3924 48.3099ZM56.8136 48.3099C56.8136 50.3422 55.1659 51.9899 53.1336 51.9899C51.1014 51.9899 49.4536 50.3422 49.4536 48.3099C49.4536 46.2776 51.1014 44.6299 53.1336 44.6299C55.1659 44.6299 56.8136 46.2776 56.8136 48.3099ZM73.2344 48.3099C73.2344 50.3422 71.5866 51.9899 69.5544 51.9899C67.5221 51.9899 65.8744 50.3422 65.8744 48.3099C65.8744 46.2776 67.5221 44.6299 69.5544 44.6299C71.5866 44.6299 73.2344 46.2776 73.2344 48.3099ZM23.9717 61.0353C23.9717 63.0675 22.324 64.7153 20.2917 64.7153C18.2594 64.7153 16.6117 63.0675 16.6117 61.0353C16.6117 59.003 18.2594 57.3553 20.2917 57.3553C22.324 57.3553 23.9717 59.003 23.9717 61.0353ZM40.3924 61.0353C40.3924 63.0675 38.7447 64.7153 36.7124 64.7153C34.6802 64.7153 33.0324 63.0675 33.0324 61.0353C33.0324 59.003 34.6802 57.3553 36.7124 57.3553C38.7447 57.3553 40.3924 59.003 40.3924 61.0353ZM56.8136 61.0353C56.8136 63.0675 55.1659 64.7153 53.1336 64.7153C51.1014 64.7153 49.4536 63.0675 49.4536 61.0353C49.4536 59.003 51.1014 57.3553 53.1336 57.3553C55.1659 57.3553 56.8136 59.003 56.8136 61.0353ZM73.2344 61.0353C73.2344 63.0675 71.5866 64.7153 69.5544 64.7153C67.5221 64.7153 65.8744 63.0675 65.8744 61.0353C65.8744 59.003 67.5221 57.3553 69.5544 57.3553C71.5866 57.3553 73.2344 59.003 73.2344 61.0353ZM23.9717 73.7608C23.9717 75.7931 22.324 77.4408 20.2917 77.4408C18.2594 77.4408 16.6117 75.7931 16.6117 73.7608C16.6117 71.7286 18.2594 70.0808 20.2917 70.0808C22.324 70.0808 23.9717 71.7286 23.9717 73.7608ZM40.3924 73.7608C40.3924 75.7931 38.7447 77.4408 36.7124 77.4408C34.6802 77.4408 33.0324 75.7931 33.0324 73.7608C33.0324 71.7286 34.6802 70.0808 36.7124 70.0808C38.7447 70.0808 40.3924 71.7286 40.3924 73.7608ZM56.8136 73.7608C56.8136 75.7931 55.1659 77.4408 53.1336 77.4408C51.1014 77.4408 49.4536 75.7931 49.4536 73.7608C49.4536 71.7286 51.1014 70.0808 53.1336 70.0808C55.1659 70.0808 56.8136 71.7286 56.8136 73.7608ZM73.2344 73.7608C73.2344 75.7931 71.5866 77.4408 69.5544 77.4408C67.5221 77.4408 65.8744 75.7931 65.8744 73.7608C65.8744 71.7286 67.5221 70.0808 69.5544 70.0808C71.5866 70.0808 73.2344 71.7286 73.2344 73.7608ZM20.5006 7.36002V21.16C20.5006 22.1762 21.3244 23 22.3406 23C23.3568 23 24.1806 22.1762 24.1806 21.16V7.36002C24.1806 6.3438 23.3568 5.52002 22.3406 5.52002C21.3244 5.52002 20.5006 6.3438 20.5006 7.36002ZM67.9462 7.36002V21.16C67.9462 22.1762 68.7699 23 69.7862 23C70.8024 23 71.6262 22.1762 71.6262 21.16V7.36002C71.6262 6.3438 70.8024 5.52002 69.7862 5.52002C68.7699 5.52002 67.9462 6.3438 67.9462 7.36002Z" fill="black"/>
<path d="M80.0397 12.355C83.0882 12.355 85.5597 14.8265 85.5597 17.875V81.0688C85.5597 84.1173 83.0882 86.5888 80.0397 86.5888H11.9597C8.91121 86.5888 6.4397 84.1173 6.4397 81.0688V17.875C6.4397 14.8265 8.91121 12.355 11.9597 12.355H80.0397ZM11.9597 16.035C10.9437 16.035 10.1197 16.8589 10.1197 17.875V81.0688C10.1197 82.0849 10.9437 82.9088 11.9597 82.9088H80.0397C81.0557 82.9088 81.8797 82.0849 81.8797 81.0688V17.875C81.8797 16.8589 81.0557 16.035 80.0397 16.035H11.9597Z" fill="black"/>
<path d="M51.6629 30.3929C51.6629 27.3445 49.1913 24.8729 46.1429 24.8729C43.0945 24.8729 40.6229 27.3445 40.6229 30.3929C40.6229 33.4413 43.0945 35.9129 46.1429 35.9129C49.1913 35.9129 51.6629 33.4413 51.6629 30.3929ZM55.3429 30.3929C55.3429 35.4736 51.2236 39.5929 46.1429 39.5929C41.0621 39.5929 36.9429 35.4736 36.9429 30.3929C36.9429 25.3121 41.0621 21.1929 46.1429 21.1929C51.2236 21.1929 55.3429 25.3121 55.3429 30.3929Z" fill="black"/>
</svg>
