<svg width="51" height="14" viewBox="0 0 51 14" fill="none" xmlns="http://www.w3.org/2000/svg">
<path d="M4.53125 13.5078C4.4375 13.4922 4.39062 13.4661 4.39062 13.4297L4.4375 13.3516C4.59375 13.0807 4.67708 12.8047 4.6875 12.5234C4.70312 12.3359 4.73958 12.1536 4.79688 11.9766C4.83854 11.8724 4.85938 11.7682 4.85938 11.6641C4.85938 11.5026 4.80469 11.3438 4.69531 11.1875C4.63802 11.2917 4.59115 11.4062 4.55469 11.5312C4.53385 11.599 4.52344 11.6562 4.52344 11.7031C4.52344 11.75 4.53125 11.7891 4.54688 11.8203L4.55469 11.8359C4.55469 11.8464 4.54948 11.8568 4.53906 11.8672C4.52344 11.8776 4.50521 11.8828 4.48438 11.8828C4.45833 11.8828 4.4375 11.875 4.42188 11.8594C4.27604 11.6771 4.20312 11.474 4.20312 11.25C4.20312 11.0052 4.25 10.7292 4.34375 10.4219L4.39844 10.2422C4.45052 10.013 4.58073 9.58073 4.78906 8.94531C4.9974 8.3099 5.22917 7.68229 5.48438 7.0625C5.74479 6.4375 5.97396 6.02865 6.17188 5.83594C6.20312 5.70052 6.2526 5.56771 6.32031 5.4375C6.38802 5.30729 6.4375 5.17708 6.46875 5.04688L6.50781 4.875C6.53906 4.77604 6.55469 4.67708 6.55469 4.57812C6.55469 4.53646 6.55208 4.4974 6.54688 4.46094C6.54167 4.42448 6.53906 4.39583 6.53906 4.375C6.53906 4.29688 6.5651 4.21875 6.61719 4.14062C6.73698 3.98438 6.81771 3.86198 6.85938 3.77344C6.90625 3.67969 6.9401 3.58594 6.96094 3.49219C6.98698 3.39844 7.03906 3.26562 7.11719 3.09375C7.27344 2.74479 7.46875 2.40365 7.70312 2.07031C7.61979 2.04948 7.53906 2.03906 7.46094 2.03906C7.40365 2.03906 7.34375 2.04688 7.28125 2.0625C7.21875 2.07292 7.14844 2.07812 7.07031 2.07812L6.95312 2.07031C7.04688 1.99219 7.22396 1.9401 7.48438 1.91406C7.67188 1.90365 7.82552 1.86458 7.94531 1.79688C7.72135 1.81771 7.4974 1.83073 7.27344 1.83594C7.13281 1.84115 6.99479 1.84896 6.85938 1.85938C6.65625 1.89062 6.45833 1.90625 6.26562 1.90625L6.01562 1.89844L4.50781 1.92188C4.48177 1.92188 4.46875 1.91406 4.46875 1.89844C4.46875 1.89323 4.46875 1.88802 4.46875 1.88281C4.46875 1.8776 4.69531 1.82031 5.14844 1.71094H4.75781C4.22656 1.71094 3.69531 1.70312 3.16406 1.6875C2.76302 1.67708 2.36719 1.67188 1.97656 1.67188C1.58594 1.67188 1.20312 1.67708 0.828125 1.6875C0.807292 1.6875 0.796875 1.68229 0.796875 1.67188C0.796875 1.65625 0.802083 1.64844 0.8125 1.64844C1.78125 1.4349 2.81771 1.2526 3.92188 1.10156C4.40625 0.841146 4.93229 0.619792 5.5 0.4375C5.53125 0.427083 5.5651 0.421875 5.60156 0.421875C5.70052 0.421875 5.78125 0.445312 5.84375 0.492188C6.04167 0.622396 6.25 0.6875 6.46875 0.6875H6.53906C6.74219 0.6875 6.94792 0.666667 7.15625 0.625C7.41667 0.583333 7.63021 0.5625 7.79688 0.5625C7.95833 0.5625 8.11198 0.588542 8.25781 0.640625C8.3151 0.661458 8.35156 0.692708 8.36719 0.734375L8.59375 0.71875C9.54167 0.635417 10.4974 0.59375 11.4609 0.59375H11.6328C11.9557 0.59375 12.2786 0.572917 12.6016 0.53125C13.138 0.463542 13.7214 0.429688 14.3516 0.429688C14.763 0.429688 15.1745 0.445312 15.5859 0.476562C15.1849 0.518229 14.9089 0.539062 14.7578 0.539062C14.8099 0.575521 14.8542 0.617188 14.8906 0.664062C15.0312 0.820312 15.2682 0.911458 15.6016 0.9375C15.8099 0.953125 16.013 0.960938 16.2109 0.960938C16.3255 0.960938 16.4401 0.958333 16.5547 0.953125C16.6693 0.947917 16.7682 0.945312 16.8516 0.945312C16.8672 0.945312 16.8776 0.950521 16.8828 0.960938C16.888 0.966146 16.8906 0.971354 16.8906 0.976562C16.8854 0.986979 16.875 0.994792 16.8594 1C16.6458 1.02604 16.4167 1.0651 16.1719 1.11719C15.6875 1.22656 15.3073 1.28125 15.0312 1.28125C14.9375 1.28125 14.8464 1.27604 14.7578 1.26562C14.2161 1.30208 13.6745 1.38021 13.1328 1.5L12.6094 1.59375L12.7266 1.60156H12.7578C12.8411 1.60156 12.9141 1.61719 12.9766 1.64844C12.4974 1.7526 12.0104 1.80469 11.5156 1.80469L11.1953 1.8125C10.9557 1.8125 10.7891 1.8151 10.6953 1.82031C10.6068 1.82552 10.5365 1.84896 10.4844 1.89062L10.4219 1.92969C10.2656 2.33594 10.0885 2.66146 9.89062 2.90625C9.73438 3.11458 9.57812 3.38021 9.42188 3.70312L9.1875 4.21094C8.875 4.86198 8.59375 5.51823 8.34375 6.17969C8.34375 6.1849 8.34115 6.1875 8.33594 6.1875C8.32031 6.1875 8.3125 6.18229 8.3125 6.17188C8.32812 5.89583 8.35677 5.6224 8.39844 5.35156C8.2526 5.5599 8.07812 5.96875 7.875 6.57812C7.67188 7.18229 7.45833 7.84896 7.23438 8.57812C7.00521 9.33333 6.78906 10.0104 6.58594 10.6094C6.38281 11.2031 6.21615 11.5677 6.08594 11.7031C6.03385 11.75 6.00521 11.7995 6 11.8516C5.94271 12.1641 5.69531 12.4818 5.25781 12.8047C5.21094 12.7786 5.1875 12.7526 5.1875 12.7266C5.1875 12.7057 5.21094 12.6745 5.25781 12.6328C5.30469 12.5859 5.32812 12.5521 5.32812 12.5312C5.32812 12.5104 5.3125 12.487 5.28125 12.4609C5.13542 12.5078 5.03646 12.5677 4.98438 12.6406C4.93229 12.7083 4.89583 12.7812 4.875 12.8594C4.86458 12.8958 4.85156 12.9349 4.83594 12.9766C4.82031 13.013 4.80729 13.0547 4.79688 13.1016C4.78125 13.1745 4.75521 13.2448 4.71875 13.3125C4.68229 13.3802 4.61979 13.4453 4.53125 13.5078ZM6.65625 9L7.125 8.08594C7.13021 8.01302 7.14062 7.9401 7.15625 7.86719C7.03125 7.97656 6.92448 8.14062 6.83594 8.35938C6.7474 8.57292 6.6875 8.78646 6.65625 9ZM6.39844 9.92188C6.52344 9.69792 6.60938 9.47396 6.65625 9.25C6.55729 9.46875 6.46875 9.6901 6.39062 9.91406L6.39844 9.92188ZM5.35156 0.976562L5.5625 0.96875C5.53646 0.953125 5.51042 0.945312 5.48438 0.945312L5.35156 0.976562ZM10.5781 10.8359L10.2422 10.8281C10.0703 10.8281 9.90365 10.7708 9.74219 10.6562L9.88281 10.6484C9.97135 10.6484 10.0547 10.6562 10.1328 10.6719C10.2109 10.6823 10.2812 10.6875 10.3438 10.6875C10.4792 10.6875 10.5938 10.6641 10.6875 10.6172C10.6302 10.5599 10.5625 10.5208 10.4844 10.5C10.4062 10.4792 10.3255 10.4635 10.2422 10.4531L10.0859 10.4297L10 10.4141C9.68229 10.3672 9.39323 10.2839 9.13281 10.1641L9.10938 10.1484C8.96875 10.0911 8.89844 10.0391 8.89844 9.99219L8.90625 9.83594C8.90625 9.61719 8.86198 9.40625 8.77344 9.20312C8.67969 8.99479 8.63281 8.78385 8.63281 8.57031C8.63281 8.50781 8.63542 8.44792 8.64062 8.39062L8.75781 7.875L8.82812 7.54688C8.85417 7.46875 8.86719 7.41927 8.86719 7.39844L8.85938 7.35156C8.79167 7.09635 8.75781 6.92188 8.75781 6.82812C8.75781 6.79167 8.76302 6.7526 8.77344 6.71094C8.77865 6.66406 8.80208 6.59375 8.84375 6.5L8.85156 6.48438C8.98698 6.14062 9.11458 5.79688 9.23438 5.45312C9.24479 5.4375 9.2526 5.41927 9.25781 5.39844C9.28385 5.32031 9.32031 5.24479 9.36719 5.17188C9.49219 4.89583 9.65365 4.63021 9.85156 4.375C10.0547 4.11458 10.2656 3.86458 10.4844 3.625C10.5677 3.53646 10.6484 3.44531 10.7266 3.35156H10.7344V3.35938C10.4896 3.72917 10.3229 4.11979 10.2344 4.53125L10.25 4.49219C10.4167 4.15885 10.612 3.86198 10.8359 3.60156C11.0599 3.33594 11.3646 3.10417 11.75 2.90625C12.1823 2.67188 12.651 2.55469 13.1562 2.55469C13.3229 2.55469 13.4948 2.56771 13.6719 2.59375C13.8229 2.61458 13.9766 2.625 14.1328 2.625C14.5807 2.625 14.9844 2.67448 15.3438 2.77344C15.6458 2.85677 15.875 3.02344 16.0312 3.27344C16.0833 3.35677 16.1536 3.43229 16.2422 3.5L16.2734 3.52344C16.1797 3.20573 15.9766 2.94792 15.6641 2.75C15.3516 2.54688 14.901 2.42188 14.3125 2.375C14.4792 2.36458 14.638 2.35938 14.7891 2.35938C15.4818 2.35938 16.0156 2.51302 16.3906 2.82031C16.7969 3.15885 17 3.67188 17 4.35938C17 4.89583 16.901 5.45833 16.7031 6.04688C16.8125 5.82292 16.9349 5.59896 17.0703 5.375C17.0755 5.36979 17.0833 5.36719 17.0938 5.36719C17.1094 5.36719 17.1172 5.375 17.1172 5.39062C17.0078 5.66667 16.9297 5.97656 16.8828 6.32031C16.8359 6.65885 16.7474 6.98958 16.6172 7.3125C16.4922 7.63542 16.25 7.89583 15.8906 8.09375L15.8281 8.10156L15.7734 8.09375C15.2682 8.92708 14.9062 9.34375 14.6875 9.34375L14.6094 9.33594C14.3594 9.59635 14.0755 9.84115 13.7578 10.0703C13.6016 10.1849 13.4271 10.2839 13.2344 10.3672C12.3958 10.6797 11.5104 10.8359 10.5781 10.8359ZM11.9141 9.6875C11.9661 9.6875 12.0234 9.68229 12.0859 9.67188C12.1536 9.66146 12.2292 9.65104 12.3125 9.64062C12.4896 9.625 12.6536 9.59375 12.8047 9.54688C12.9557 9.5 13.0547 9.40885 13.1016 9.27344C12.8984 9.40885 12.6562 9.5 12.375 9.54688L12.2188 9.55469C11.9688 9.55469 11.6823 9.4401 11.3594 9.21094L11.3438 9.19531C11.599 9.32031 11.8333 9.38281 12.0469 9.38281C12.4792 9.38281 12.8932 9.13542 13.2891 8.64062C13.5391 8.32812 13.7656 8 13.9688 7.65625C14.2448 7.1875 14.5078 6.84635 14.7578 6.63281H14.7656C14.8802 6.35677 14.9583 6.07812 15 5.79688C15.0104 5.72917 15.0156 5.66146 15.0156 5.59375C15.0156 5.38542 14.9714 5.17188 14.8828 4.95312V4.89844C14.888 4.88802 14.8984 4.875 14.9141 4.85938C14.9297 4.83854 14.9479 4.79948 14.9688 4.74219V4.71875C14.9219 4.57292 14.8516 4.42708 14.7578 4.28125L14.75 4.26562L14.6641 4.13281C14.2474 3.88281 13.9115 3.75781 13.6562 3.75781C13.5677 3.75781 13.4766 3.76823 13.3828 3.78906C13.0339 3.88802 12.7344 4.05469 12.4844 4.28906C12.5052 4.3724 12.5156 4.42188 12.5156 4.4375C12.5156 4.46875 12.4974 4.49479 12.4609 4.51562C12.2526 4.67708 12.0911 4.85156 11.9766 5.03906C11.862 5.22135 11.7135 5.38802 11.5312 5.53906C11.5365 5.53906 11.5391 5.54167 11.5391 5.54688C11.5391 5.54688 11.5417 5.54948 11.5469 5.55469L11.5234 5.54688L11.5312 5.53125V5.52344C11.2396 6.01823 11.0807 6.52865 11.0547 7.05469C11.0547 7.07031 11.0443 7.07812 11.0234 7.07812C11.0182 7.07812 11.0104 7.07812 11 7.07812C10.9896 7.07812 10.9818 7.07292 10.9766 7.0625C10.9089 6.84896 10.875 6.59375 10.875 6.29688C10.6927 6.94792 10.5964 7.60677 10.5859 8.27344C10.5859 8.3776 10.6042 8.46094 10.6406 8.52344C10.6719 8.3151 10.7292 8.10938 10.8125 7.90625C10.849 7.80729 10.8828 7.70312 10.9141 7.59375H10.9297V7.60156C10.9193 7.70052 10.9141 7.79688 10.9141 7.89062C10.9141 8.22396 10.9688 8.55208 11.0781 8.875C11.2656 9.41667 11.5443 9.6875 11.9141 9.6875ZM9.92188 9.92969C9.875 9.79427 9.79167 9.6849 9.67188 9.60156C9.55208 9.51823 9.43229 9.45052 9.3125 9.39844L9.26562 9.375C9.32812 9.52604 9.40365 9.64583 9.49219 9.73438C9.58594 9.82292 9.72917 9.88802 9.92188 9.92969ZM15.9453 4.92969C15.9661 4.8776 15.9766 4.83073 15.9766 4.78906C15.9766 4.71615 15.9453 4.63021 15.8828 4.53125C15.9141 4.69271 15.9349 4.82552 15.9453 4.92969ZM13.8203 8.63281C13.8776 8.57552 13.9323 8.51302 13.9844 8.44531C14.1094 8.29427 14.25 8.15104 14.4062 8.01562C14.4375 7.98958 14.4531 7.96094 14.4531 7.92969C14.4531 7.91927 14.4557 7.90365 14.4609 7.88281C14.4661 7.86198 14.513 7.82292 14.6016 7.76562C14.7109 7.69271 14.7656 7.63281 14.7656 7.58594C14.7656 7.54948 14.7448 7.51042 14.7031 7.46875C14.651 7.5 14.6094 7.53646 14.5781 7.57812C14.5469 7.61458 14.5182 7.65625 14.4922 7.70312C14.4714 7.74479 14.4583 7.78906 14.4531 7.83594C14.4479 7.8776 14.4453 7.90885 14.4453 7.92969C14.4453 7.95052 14.4375 7.96094 14.4219 7.96094L14.3281 7.95312C14.1719 8.19792 14.0026 8.42448 13.8203 8.63281ZM21.6484 12.2969C21.6276 12.2969 21.6068 12.2943 21.5859 12.2891C21.5703 12.2839 21.5625 12.1927 21.5625 12.0156C21.5625 11.5938 21.6536 11.1797 21.8359 10.7734C21.8047 10.7891 21.7786 10.7969 21.7578 10.7969C21.7005 10.7969 21.6615 10.7604 21.6406 10.6875C21.6198 10.6042 21.6094 10.4948 21.6094 10.3594C21.6094 10.1354 21.5625 9.51302 21.4688 8.49219C21.4375 8.0651 21.4141 7.83333 21.3984 7.79688C21.388 7.81771 21.3542 7.85677 21.2969 7.91406C20.7344 8.60677 20.2708 9.20833 19.9062 9.71875L19.8906 9.72656C19.8802 9.72656 19.8724 9.72656 19.8672 9.72656C19.862 9.72135 19.8594 9.71354 19.8594 9.70312C20.0208 9.39062 20.1719 9.07552 20.3125 8.75781C20.3177 8.74219 20.3255 8.72917 20.3359 8.71875C20.263 8.79167 20.0417 9.06771 19.6719 9.54688C19.3802 9.92188 19.1979 10.1432 19.125 10.2109C19.1198 10.2214 19.112 10.2318 19.1016 10.2422C19.0911 10.2474 19.0859 10.2578 19.0859 10.2734C19.0859 10.2995 19.0885 10.3229 19.0938 10.3438C19.099 10.3646 19.1016 10.3854 19.1016 10.4062C19.1016 10.4688 19.0208 10.5156 18.8594 10.5469C18.8281 10.6615 18.7917 10.776 18.75 10.8906C18.6302 11.2188 18.5703 11.4766 18.5703 11.6641C18.5703 11.7474 18.5781 11.8307 18.5938 11.9141C18.5938 11.9557 18.5781 11.987 18.5469 12.0078C18.5156 12.0286 18.4818 12.0391 18.4453 12.0391C18.4036 12.0391 18.375 12.0208 18.3594 11.9844C18.2135 11.625 18.099 11.2578 18.0156 10.8828C17.9792 10.7839 17.9323 10.6849 17.875 10.5859C17.8229 10.638 17.7917 10.6901 17.7812 10.7422L17.7734 10.8359V10.9531C17.7682 10.9792 17.7552 11.0026 17.7344 11.0234C17.6875 11.0547 17.651 11.0703 17.625 11.0703C17.6094 11.0703 17.6016 11.0599 17.6016 11.0391C17.6016 10.6693 17.5729 10.349 17.5156 10.0781C17.4635 9.80729 17.4375 9.53385 17.4375 9.25781C17.4375 9.17448 17.4401 9.09375 17.4453 9.01562L17.4531 8.84375C17.4531 8.53646 17.4036 8.23177 17.3047 7.92969L17.2188 7.57031C17.1927 7.42969 17.1797 7.28906 17.1797 7.14844L17.1719 6.88281C17.1719 6.85677 17.1771 6.83333 17.1875 6.8125C17.3438 6.64062 17.4297 6.46875 17.4453 6.29688L17.4531 6.13281C17.4531 6.01823 17.4427 5.90625 17.4219 5.79688C17.401 5.68229 17.3906 5.57031 17.3906 5.46094L17.3984 5.29688C17.3984 5.19792 17.3958 5.13021 17.3906 5.09375C17.3854 5.05208 17.3828 5.01302 17.3828 4.97656C17.3828 4.91406 17.3932 4.84115 17.4141 4.75781C17.4349 4.67448 17.5078 4.58333 17.6328 4.48438C17.7057 4.42708 17.7422 4.35677 17.7422 4.27344C17.7422 4.20573 17.7188 4.11719 17.6719 4.00781C17.6458 3.95573 17.6328 3.90885 17.6328 3.86719C17.6328 3.84635 17.6406 3.82292 17.6562 3.79688C17.6771 3.76562 17.7526 3.71875 17.8828 3.65625L17.875 3.51562C17.875 3.30208 17.8854 3.1224 17.9062 2.97656C17.9323 2.82552 18.0182 2.66146 18.1641 2.48438L18.1719 2.47656H18.1875V2.49219C18.1302 2.59115 18.1016 2.6901 18.1016 2.78906C18.1016 2.84115 18.1146 2.91667 18.1406 3.01562C18.1719 3.11458 18.2266 3.23438 18.3047 3.375L18.375 3.51562C18.474 2.90104 18.5234 2.42969 18.5234 2.10156C18.5234 1.95052 18.5156 1.80469 18.5 1.66406C18.5 1.65365 18.5052 1.64583 18.5156 1.64062C18.5365 1.64062 18.5495 1.64323 18.5547 1.64844C18.5911 1.78906 18.6302 1.92708 18.6719 2.0625C18.7708 2.39583 18.8594 2.73177 18.9375 3.07031C19.0208 3.40365 19.0677 3.74479 19.0781 4.09375C19.0938 4.375 19.1198 4.66146 19.1562 4.95312L19.1641 5.04688L19.1953 5.00781C19.2422 5.24219 19.2656 5.47396 19.2656 5.70312C19.2656 5.92708 19.2422 6.15104 19.1953 6.375L19.1641 6.60156L19.1406 6.64844C19.0573 7.08073 19.0156 7.51042 19.0156 7.9375C19.0156 8.15625 19.026 8.3724 19.0469 8.58594C19.151 8.57552 19.2188 8.55469 19.25 8.52344C19.2865 8.48698 19.3177 8.42969 19.3438 8.35156L19.3672 8.32031C19.8568 7.5599 20.3281 6.79688 20.7812 6.03125C20.9427 5.77604 21.138 5.53385 21.3672 5.30469C21.5182 5.14844 21.6562 4.98958 21.7812 4.82812C21.7917 4.8125 21.8047 4.79948 21.8203 4.78906C22.0286 4.73698 22.1667 4.66667 22.2344 4.57812C22.3073 4.48958 22.3568 4.39323 22.3828 4.28906C22.3984 4.22135 22.4245 4.15625 22.4609 4.09375L22.5234 3.96094C22.5755 3.85677 22.6406 3.7526 22.7188 3.64844C22.7969 3.54427 22.9062 3.44792 23.0469 3.35938C23.0208 3.45312 23.0078 3.54167 23.0078 3.625C23.0078 3.71875 23.0234 3.8099 23.0547 3.89844C23.0703 3.94531 23.0781 3.99219 23.0781 4.03906C23.0781 4.1224 23.0391 4.2474 22.9609 4.41406C22.9193 4.49219 22.8854 4.57031 22.8594 4.64844C22.849 4.67969 22.8333 4.71354 22.8125 4.75C22.7656 4.80729 22.7422 4.84896 22.7422 4.875C22.7422 4.9375 22.8125 4.98958 22.9531 5.03125C22.9792 5.03646 22.9948 5.05469 23 5.08594C23 5.11719 22.9922 5.15365 22.9766 5.19531C22.9661 5.23177 22.9557 5.26823 22.9453 5.30469L22.9297 5.34375C22.9036 5.44271 22.8906 5.54167 22.8906 5.64062C22.8906 5.74479 22.9062 5.84635 22.9375 5.94531C22.9896 6.20573 23.0156 6.4349 23.0156 6.63281L23.0078 6.80469C23.0078 7.00781 23.0182 7.16927 23.0391 7.28906L23.0469 7.21094C23.125 6.72656 23.1641 6.24479 23.1641 5.76562L23.1562 5.39062L23.1719 5.38281C23.1771 5.38281 23.1797 5.38542 23.1797 5.39062C23.3359 6.23438 23.4141 7.15104 23.4141 8.14062C23.4453 8.125 23.474 8.07812 23.5 8C24.5833 5.98958 25.151 4.92188 25.2031 4.79688C25.25 4.70312 25.2943 4.64323 25.3359 4.61719C25.5234 4.50781 25.6641 4.38802 25.7578 4.25781C25.8568 4.1276 25.9375 3.99479 26 3.85938C26.0365 3.80208 26.0703 3.73958 26.1016 3.67188C26.1328 3.60417 26.1771 3.54167 26.2344 3.48438C26.2969 3.42708 26.4062 3.38802 26.5625 3.36719C26.625 3.35677 26.6693 3.33594 26.6953 3.30469C26.7266 3.27344 26.7526 3.23958 26.7734 3.20312L26.875 3.04688C26.9427 2.92188 27.0365 2.82292 27.1562 2.75L27.1797 2.82812C27.3932 2.5625 27.6094 2.30208 27.8281 2.04688C27.9219 1.93229 27.974 1.875 27.9844 1.875C28.0052 1.875 28.0156 1.88281 28.0156 1.89844V1.90625C27.6823 2.49479 27.4167 3.10156 27.2188 3.72656L27.1797 3.82031C27.1901 3.84115 27.2057 3.86458 27.2266 3.89062C27.4609 3.61979 27.6771 3.35417 27.875 3.09375C27.8854 3.08333 27.8958 3.07812 27.9062 3.07812C27.9323 3.07812 27.9453 3.08594 27.9453 3.10156V3.10938C27.7839 3.42188 27.625 3.75 27.4688 4.09375L27.1641 4.75C27.1953 4.79688 27.2109 4.84115 27.2109 4.88281C27.2109 4.91927 27.1927 4.96615 27.1562 5.02344C27.125 5.07552 27.0729 5.13802 27 5.21094C26.9427 5.26823 26.8932 5.32552 26.8516 5.38281L26.7656 5.50781C26.5833 5.83594 26.3724 6.14583 26.1328 6.4375C25.9714 6.76042 25.7786 7.08073 25.5547 7.39844C25.4401 7.5651 25.3307 7.73438 25.2266 7.90625L25.0469 8.20312C24.724 8.79167 24.3333 9.35417 23.875 9.89062L23.8594 9.89844C23.849 9.89844 23.8411 9.89844 23.8359 9.89844C23.8307 9.89323 23.8281 9.88802 23.8281 9.88281L24.2656 9.04688L23.9141 9.50781C23.5599 9.95573 23.2552 10.4141 23 10.8828C22.901 11.0911 22.7422 11.2969 22.5234 11.5C22.4818 11.4896 22.4557 11.4766 22.4453 11.4609C22.4401 11.4401 22.4375 11.4193 22.4375 11.3984C22.4375 11.3724 22.4323 11.3516 22.4219 11.3359C22.4115 11.3151 22.3802 11.3021 22.3281 11.2969C22.2917 11.3125 22.263 11.3281 22.2422 11.3438C22.0339 11.6458 21.8516 11.9505 21.6953 12.2578C21.6849 12.2786 21.6693 12.2917 21.6484 12.2969ZM22.6719 6.04688C22.7031 6.03125 22.7188 6.01042 22.7188 5.98438C22.7188 5.95833 22.6979 5.92448 22.6562 5.88281C22.651 5.89323 22.6432 5.90365 22.6328 5.91406C22.6276 5.91927 22.6224 5.92448 22.6172 5.92969C22.612 5.9349 22.6094 5.94271 22.6094 5.95312V6.01562C22.6094 6.03646 22.6224 6.04688 22.6484 6.04688H22.6719ZM28.6875 10.6797C28.4844 10.6797 28.2708 10.6667 28.0469 10.6406C28.0208 10.6406 28.0052 10.6354 28 10.625L27.5781 10.6641C27.4479 10.6745 27.3177 10.6797 27.1875 10.6797H27.0547C26.8828 10.6797 26.7135 10.6432 26.5469 10.5703C26.4844 10.5703 26.3385 10.5807 26.1094 10.6016C26.1042 10.6016 26.1016 10.6016 26.1016 10.6016C26.0964 10.5964 26.0938 10.5911 26.0938 10.5859H26.1016C26.2057 10.5547 26.3021 10.5312 26.3906 10.5156C26.3073 10.5 26.2135 10.4922 26.1094 10.4922C26.0417 10.487 25.9766 10.4818 25.9141 10.4766C25.8464 10.4714 25.7865 10.4609 25.7344 10.4453C25.6823 10.4297 25.6458 10.401 25.625 10.3594L25.6172 10.3281C25.6172 10.2812 25.6849 10.2396 25.8203 10.2031C25.8672 10.1771 25.9375 10.1615 26.0312 10.1562C26.1875 10.1406 26.276 10.1068 26.2969 10.0547C26.2969 9.9974 26.263 9.95052 26.1953 9.91406C26.0599 9.83594 25.9922 9.76302 25.9922 9.69531C25.9922 9.6901 25.9974 9.66667 26.0078 9.625C26.013 9.58333 26.0755 9.52083 26.1953 9.4375C26.2891 9.35938 26.362 9.27083 26.4141 9.17188L26.5 9.04688C26.5104 9.03125 26.5443 8.99479 26.6016 8.9375L26.6094 8.90625C26.6094 8.89583 26.6068 8.88802 26.6016 8.88281C26.5911 8.8776 26.5859 8.8724 26.5859 8.86719C26.4714 9.03385 26.3594 9.20312 26.25 9.375C26.2448 9.38542 26.2344 9.39062 26.2188 9.39062C26.1823 9.39062 26.1641 9.38021 26.1641 9.35938C26.2109 9.11979 26.2995 8.88542 26.4297 8.65625C26.3984 8.65625 26.375 8.64844 26.3594 8.63281C26.3385 8.61198 26.3281 8.59375 26.3281 8.57812L26.3359 8.55469C26.3932 8.35677 26.4609 8.15625 26.5391 7.95312C26.4401 7.94792 26.3906 7.91406 26.3906 7.85156C26.3906 7.83073 26.4062 7.79688 26.4375 7.75C26.4531 7.72396 26.4635 7.69792 26.4688 7.67188C26.6042 7.29688 26.8229 6.9349 27.125 6.58594C27.1667 6.48177 27.2083 6.38802 27.25 6.30469C27.276 6.0651 27.3724 5.83333 27.5391 5.60938C27.6745 5.4375 27.7682 5.26042 27.8203 5.07812C27.8724 4.89583 27.9089 4.71094 27.9297 4.52344C27.9557 4.24219 28.0312 3.96354 28.1562 3.6875C28.2031 3.59375 28.2526 3.46875 28.3047 3.3125C28.3984 3.07812 28.4714 2.88281 28.5234 2.72656C28.5859 2.73698 28.6406 2.74219 28.6875 2.74219C28.8021 2.74219 28.9062 2.70312 29 2.625C29.0417 2.59375 29.0859 2.56771 29.1328 2.54688C29.1849 2.52083 29.2448 2.50781 29.3125 2.50781C29.3854 2.5026 29.4375 2.48698 29.4688 2.46094C29.5052 2.4349 29.5339 2.40625 29.5547 2.375C29.5755 2.34375 29.6042 2.3151 29.6406 2.28906C29.8125 2.16927 29.987 2.10938 30.1641 2.10938C30.3307 2.10938 30.5 2.16146 30.6719 2.26562C30.7656 2.3125 30.862 2.33594 30.9609 2.33594L31.0703 2.32812C31.4766 2.28125 31.7057 2.25 31.7578 2.23438C31.8359 2.21875 31.9688 2.20573 32.1562 2.19531C32.4219 2.17969 32.6797 2.17188 32.9297 2.17188C33.0651 2.17188 33.1979 2.17448 33.3281 2.17969C33.4844 2.1849 33.7214 2.1875 34.0391 2.1875C34.1016 2.1875 34.1589 2.19792 34.2109 2.21875C34.2682 2.23438 34.3125 2.27604 34.3438 2.34375L33.8594 2.33594L33.375 2.34375C33.625 2.38021 33.8724 2.41927 34.1172 2.46094C34.4557 2.51823 34.7891 2.5651 35.1172 2.60156C35.1745 2.60156 35.2292 2.59896 35.2812 2.59375L35.2969 2.60156V2.60938L35.2812 2.61719L35.3516 2.625C35.3932 2.63021 35.4479 2.63542 35.5156 2.64062C35.5833 2.64062 35.6536 2.64062 35.7266 2.64062L35.9219 2.64844V2.65625C35.9219 2.66146 35.9193 2.66406 35.9141 2.66406C35.4661 2.70573 34.9323 2.72656 34.3125 2.72656C34.2865 2.7474 34.2734 2.77083 34.2734 2.79688C34.2734 2.81771 34.2865 2.84375 34.3125 2.875C34.3385 2.90625 34.3958 2.92188 34.4844 2.92188L34.7109 2.90625L36.0156 2.85938L36.5391 2.83594C36.3776 2.94531 36.2188 3.01562 36.0625 3.04688C35.9115 3.07292 35.7604 3.08854 35.6094 3.09375L35.5547 3.10156C35.4245 3.10156 35.3281 3.11198 35.2656 3.13281C35.2083 3.15365 35.1797 3.20052 35.1797 3.27344V3.29688C35.1797 3.33854 35.151 3.36719 35.0938 3.38281C35 3.40885 34.8984 3.42188 34.7891 3.42188L34.0547 3.52344C33.7943 3.5651 33.5547 3.59635 33.3359 3.61719C33.1224 3.63281 32.7891 3.64323 32.3359 3.64844C32.2318 3.64844 32.1693 3.64323 32.1484 3.63281C32.1224 3.63281 32.1068 3.63021 32.1016 3.625L31.8906 3.63281C31.7031 3.64323 31.5651 3.67708 31.4766 3.73438C31.388 3.78646 31.3307 3.86198 31.3047 3.96094L31.1719 4.35156C31.0052 4.85156 30.9219 5.13021 30.9219 5.1875C30.9219 5.24479 30.9453 5.28906 30.9922 5.32031C31.0391 5.34635 31.1849 5.35938 31.4297 5.35938H31.6875L31.9297 5.375C31.9453 5.38021 31.9583 5.38802 31.9688 5.39844C31.9844 5.40885 32.0026 5.41927 32.0234 5.42969C32.0443 5.4401 32.1198 5.45573 32.25 5.47656C32.5 5.51302 32.8411 5.53646 33.2734 5.54688L33.6875 5.55469C33.5625 5.63802 33.3958 5.67969 33.1875 5.67969C33.0208 5.67969 32.8828 5.70833 32.7734 5.76562C33.0443 5.84375 33.3281 5.88281 33.625 5.88281C33.7031 5.88281 33.7839 5.88021 33.8672 5.875C33.9505 5.86979 34.0339 5.86719 34.1172 5.86719C34.3984 5.86719 34.6719 5.90625 34.9375 5.98438C34.8281 5.96875 34.724 5.96094 34.625 5.96094C34.3281 5.96094 34.0573 6.02865 33.8125 6.16406C33.7292 6.21094 33.599 6.23438 33.4219 6.23438C33.2135 6.26562 33.0078 6.30729 32.8047 6.35938C32.4245 6.46354 32.0391 6.51562 31.6484 6.51562C31.5234 6.51562 31.4036 6.50521 31.2891 6.48438C31.2214 6.46875 31.0964 6.45052 30.9141 6.42969C30.6953 6.47656 30.375 6.51562 29.9531 6.54688C29.7656 6.5625 29.638 6.60938 29.5703 6.6875C29.5078 6.76042 29.4661 6.84115 29.4453 6.92969C29.3099 7.3099 29.151 7.6875 28.9688 8.0625C29.3854 7.45312 29.638 7.07812 29.7266 6.9375L29.7422 6.92969C29.7474 6.9349 29.7526 6.9375 29.7578 6.9375C29.763 6.9375 29.7656 6.9401 29.7656 6.94531L29.7578 6.95312C29.5703 7.53646 29.3464 8.10938 29.0859 8.67188L28.7969 9.30469C29.0573 9.27865 29.25 9.26562 29.375 9.26562C29.4583 9.26562 29.6094 9.26042 29.8281 9.25C30.125 9.22917 30.4245 9.21615 30.7266 9.21094C30.862 9.14844 30.9948 9.11719 31.125 9.11719C31.2812 9.11719 31.4714 9.14583 31.6953 9.20312C31.7995 9.22396 31.9062 9.24219 32.0156 9.25781C32.0208 9.26302 32.0391 9.26562 32.0703 9.26562C32.1328 9.27604 32.1979 9.28125 32.2656 9.28125C32.276 9.28125 32.2891 9.28906 32.3047 9.30469L32.7422 9.39062L32.7578 9.41406C32.7474 9.42448 32.5234 9.43229 32.0859 9.4375C31.8932 9.46354 31.7578 9.48958 31.6797 9.51562C31.6068 9.53646 31.5625 9.58594 31.5469 9.66406C31.7552 9.6849 31.9635 9.69531 32.1719 9.69531C32.5156 9.69531 32.8594 9.66667 33.2031 9.60938C33.4375 9.57812 33.6771 9.55208 33.9219 9.53125C33.7865 9.67188 33.5859 9.75521 33.3203 9.78125C33.2422 9.79167 33.1667 9.80469 33.0938 9.82031C32.9792 9.85156 32.8542 9.875 32.7188 9.89062C32.5885 9.90104 32.4635 9.92188 32.3438 9.95312C32.224 9.97917 32.125 10.0339 32.0469 10.1172C32.026 10.138 31.9479 10.1484 31.8125 10.1484L31.7109 10.1406C31.6745 10.1406 31.6406 10.1432 31.6094 10.1484C31.5208 10.1641 31.4297 10.1745 31.3359 10.1797C31.0703 10.1901 30.8177 10.237 30.5781 10.3203C30.9948 10.2943 31.4089 10.25 31.8203 10.1875H31.8438C31.8438 10.2031 31.8385 10.2109 31.8281 10.2109C31.1354 10.4141 30.4167 10.5417 29.6719 10.5938L29.2266 10.6328C29.0391 10.6589 28.8594 10.6745 28.6875 10.6797ZM27.3438 6.91406C27.5312 6.64844 27.6823 6.38281 27.7969 6.11719L27.9688 5.76562C27.974 5.76042 27.9792 5.7526 27.9844 5.74219C27.9948 5.73177 28 5.71875 28 5.70312C27.9948 5.69792 27.9922 5.69531 27.9922 5.69531C27.9922 5.6901 27.9896 5.68229 27.9844 5.67188C27.9844 5.65625 27.9844 5.64062 27.9844 5.625C27.9948 5.55208 28.0208 5.47917 28.0625 5.40625C28.1198 5.3125 28.1484 5.21094 28.1484 5.10156L28.0625 5.17969L27.9141 5.47656C27.9141 5.53906 27.9297 5.59115 27.9609 5.63281L27.9922 5.6875C27.9922 5.70312 27.974 5.71094 27.9375 5.71094C27.901 5.71094 27.8724 5.71615 27.8516 5.72656C27.8307 5.73177 27.8099 5.73698 27.7891 5.74219C27.6484 6.07552 27.5182 6.40885 27.3984 6.74219L27.3438 6.91406ZM30.375 5.35156C30.5104 5.15365 30.6094 4.95312 30.6719 4.75L30.3672 5.34375L30.375 5.35156ZM30.3672 4.80469C30.4766 4.63281 30.5833 4.45833 30.6875 4.28125L30.8672 3.99219L30.9141 3.78906C30.7995 3.88281 30.6927 4.02604 30.5938 4.21875C30.4948 4.40625 30.4193 4.60156 30.3672 4.80469ZM33.8281 13.5078C33.7344 13.4922 33.6875 13.4661 33.6875 13.4297L33.7344 13.3516C33.8906 13.0807 33.974 12.8047 33.9844 12.5234C34 12.3359 34.0365 12.1536 34.0938 11.9766C34.1354 11.8724 34.1562 11.7682 34.1562 11.6641C34.1562 11.5026 34.1016 11.3438 33.9922 11.1875C33.9349 11.2917 33.888 11.4062 33.8516 11.5312C33.8307 11.599 33.8203 11.6562 33.8203 11.7031C33.8203 11.75 33.8281 11.7891 33.8438 11.8203L33.8516 11.8359C33.8516 11.8464 33.8464 11.8568 33.8359 11.8672C33.8203 11.8776 33.8021 11.8828 33.7812 11.8828C33.7552 11.8828 33.7344 11.875 33.7188 11.8594C33.5729 11.6771 33.5 11.474 33.5 11.25C33.5 11.0052 33.5469 10.7292 33.6406 10.4219L33.6953 10.2422C33.7474 10.013 33.8776 9.58073 34.0859 8.94531C34.2943 8.3099 34.526 7.68229 34.7812 7.0625C35.0417 6.4375 35.2708 6.02865 35.4688 5.83594C35.5 5.70052 35.5495 5.56771 35.6172 5.4375C35.6849 5.30729 35.7344 5.17708 35.7656 5.04688L35.8047 4.875C35.8359 4.77604 35.8516 4.67708 35.8516 4.57812C35.8516 4.53646 35.849 4.4974 35.8438 4.46094C35.8385 4.42448 35.8359 4.39583 35.8359 4.375C35.8359 4.29688 35.862 4.21875 35.9141 4.14062C36.0339 3.98438 36.1146 3.86198 36.1562 3.77344C36.2031 3.67969 36.237 3.58594 36.2578 3.49219C36.2839 3.39844 36.3359 3.26562 36.4141 3.09375C36.5703 2.74479 36.7656 2.40365 37 2.07031C36.9167 2.04948 36.8359 2.03906 36.7578 2.03906C36.7005 2.03906 36.6406 2.04688 36.5781 2.0625C36.5156 2.07292 36.4453 2.07812 36.3672 2.07812L36.25 2.07031C36.3438 1.99219 36.5208 1.9401 36.7812 1.91406C36.9688 1.90365 37.1224 1.86458 37.2422 1.79688C37.0182 1.81771 36.7943 1.83073 36.5703 1.83594C36.4297 1.84115 36.2917 1.84896 36.1562 1.85938C35.9531 1.89062 35.7552 1.90625 35.5625 1.90625L35.3125 1.89844L33.8047 1.92188C33.7786 1.92188 33.7656 1.91406 33.7656 1.89844C33.7656 1.89323 33.7656 1.88802 33.7656 1.88281C33.7656 1.8776 33.9922 1.82031 34.4453 1.71094H34.0547C33.5234 1.71094 32.9922 1.70312 32.4609 1.6875C32.0599 1.67708 31.6641 1.67188 31.2734 1.67188C30.8828 1.67188 30.5 1.67708 30.125 1.6875C30.1042 1.6875 30.0938 1.68229 30.0938 1.67188C30.0938 1.65625 30.099 1.64844 30.1094 1.64844C31.0781 1.4349 32.1146 1.2526 33.2188 1.10156C33.7031 0.841146 34.2292 0.619792 34.7969 0.4375C34.8281 0.427083 34.862 0.421875 34.8984 0.421875C34.9974 0.421875 35.0781 0.445312 35.1406 0.492188C35.3385 0.622396 35.5469 0.6875 35.7656 0.6875H35.8359C36.0391 0.6875 36.2448 0.666667 36.4531 0.625C36.7135 0.583333 36.9271 0.5625 37.0938 0.5625C37.2552 0.5625 37.4089 0.588542 37.5547 0.640625C37.612 0.661458 37.6484 0.692708 37.6641 0.734375L37.8906 0.71875C38.8385 0.635417 39.7943 0.59375 40.7578 0.59375H40.9297C41.2526 0.59375 41.5755 0.572917 41.8984 0.53125C42.4349 0.463542 43.0182 0.429688 43.6484 0.429688C44.0599 0.429688 44.4714 0.445312 44.8828 0.476562C44.4818 0.518229 44.2057 0.539062 44.0547 0.539062C44.1068 0.575521 44.151 0.617188 44.1875 0.664062C44.3281 0.820312 44.5651 0.911458 44.8984 0.9375C45.1068 0.953125 45.3099 0.960938 45.5078 0.960938C45.6224 0.960938 45.737 0.958333 45.8516 0.953125C45.9661 0.947917 46.0651 0.945312 46.1484 0.945312C46.1641 0.945312 46.1745 0.950521 46.1797 0.960938C46.1849 0.966146 46.1875 0.971354 46.1875 0.976562C46.1823 0.986979 46.1719 0.994792 46.1562 1C45.9427 1.02604 45.7135 1.0651 45.4688 1.11719C44.9844 1.22656 44.6042 1.28125 44.3281 1.28125C44.2344 1.28125 44.1432 1.27604 44.0547 1.26562C43.513 1.30208 42.9714 1.38021 42.4297 1.5L41.9062 1.59375L42.0234 1.60156H42.0547C42.138 1.60156 42.2109 1.61719 42.2734 1.64844C41.7943 1.7526 41.3073 1.80469 40.8125 1.80469L40.4922 1.8125C40.2526 1.8125 40.0859 1.8151 39.9922 1.82031C39.9036 1.82552 39.8333 1.84896 39.7812 1.89062L39.7188 1.92969C39.5625 2.33594 39.3854 2.66146 39.1875 2.90625C39.0312 3.11458 38.875 3.38021 38.7188 3.70312L38.4844 4.21094C38.1719 4.86198 37.8906 5.51823 37.6406 6.17969C37.6406 6.1849 37.638 6.1875 37.6328 6.1875C37.6172 6.1875 37.6094 6.18229 37.6094 6.17188C37.625 5.89583 37.6536 5.6224 37.6953 5.35156C37.5495 5.5599 37.375 5.96875 37.1719 6.57812C36.9688 7.18229 36.7552 7.84896 36.5312 8.57812C36.3021 9.33333 36.0859 10.0104 35.8828 10.6094C35.6797 11.2031 35.513 11.5677 35.3828 11.7031C35.3307 11.75 35.3021 11.7995 35.2969 11.8516C35.2396 12.1641 34.9922 12.4818 34.5547 12.8047C34.5078 12.7786 34.4844 12.7526 34.4844 12.7266C34.4844 12.7057 34.5078 12.6745 34.5547 12.6328C34.6016 12.5859 34.625 12.5521 34.625 12.5312C34.625 12.5104 34.6094 12.487 34.5781 12.4609C34.4323 12.5078 34.3333 12.5677 34.2812 12.6406C34.2292 12.7083 34.1927 12.7812 34.1719 12.8594C34.1615 12.8958 34.1484 12.9349 34.1328 12.9766C34.1172 13.013 34.1042 13.0547 34.0938 13.1016C34.0781 13.1745 34.0521 13.2448 34.0156 13.3125C33.9792 13.3802 33.9167 13.4453 33.8281 13.5078ZM35.9531 9L36.4219 8.08594C36.4271 8.01302 36.4375 7.9401 36.4531 7.86719C36.3281 7.97656 36.2214 8.14062 36.1328 8.35938C36.0443 8.57292 35.9844 8.78646 35.9531 9ZM35.6953 9.92188C35.8203 9.69792 35.9062 9.47396 35.9531 9.25C35.8542 9.46875 35.7656 9.6901 35.6875 9.91406L35.6953 9.92188ZM34.6484 0.976562L34.8594 0.96875C34.8333 0.953125 34.8073 0.945312 34.7812 0.945312L34.6484 0.976562ZM38 13.5078C37.9062 13.4922 37.8594 13.4661 37.8594 13.4297L37.9062 13.3516C38.0625 13.0807 38.1458 12.8047 38.1562 12.5234C38.1719 12.3359 38.2083 12.1536 38.2656 11.9766C38.3073 11.8724 38.3281 11.7682 38.3281 11.6641C38.3281 11.5026 38.2734 11.3438 38.1641 11.1875C38.1068 11.2917 38.0599 11.4062 38.0234 11.5312C38.0026 11.599 37.9922 11.6562 37.9922 11.7031C37.9922 11.75 38 11.7891 38.0156 11.8203L38.0234 11.8359C38.0234 11.8464 38.0182 11.8568 38.0078 11.8672C37.9922 11.8776 37.974 11.8828 37.9531 11.8828C37.9271 11.8828 37.9062 11.875 37.8906 11.8594C37.7448 11.6771 37.6719 11.474 37.6719 11.25C37.6719 11.0052 37.7188 10.7292 37.8125 10.4219L37.8672 10.2422C37.9193 10.013 38.0495 9.58073 38.2578 8.94531C38.4661 8.3099 38.6979 7.68229 38.9531 7.0625C39.2135 6.4375 39.4427 6.02865 39.6406 5.83594C39.6719 5.70052 39.7214 5.56771 39.7891 5.4375C39.8568 5.30729 39.9062 5.17708 39.9375 5.04688L39.9766 4.875C40.0078 4.77604 40.0234 4.67708 40.0234 4.57812C40.0234 4.53646 40.0208 4.4974 40.0156 4.46094C40.0104 4.42448 40.0078 4.39583 40.0078 4.375C40.0078 4.29688 40.0339 4.21875 40.0859 4.14062C40.2057 3.98438 40.2865 3.86198 40.3281 3.77344C40.375 3.67969 40.4089 3.58594 40.4297 3.49219C40.4557 3.39844 40.5078 3.26562 40.5859 3.09375C40.7422 2.74479 40.9375 2.40365 41.1719 2.07031C41.0885 2.04948 41.0078 2.03906 40.9297 2.03906C40.8724 2.03906 40.8125 2.04688 40.75 2.0625C40.6875 2.07292 40.6172 2.07812 40.5391 2.07812L40.4219 2.07031C40.5156 1.99219 40.6927 1.9401 40.9531 1.91406C41.1406 1.90365 41.2943 1.86458 41.4141 1.79688C41.1901 1.81771 40.9661 1.83073 40.7422 1.83594C40.6016 1.84115 40.4635 1.84896 40.3281 1.85938C40.125 1.89062 39.9271 1.90625 39.7344 1.90625L39.4844 1.89844L37.9766 1.92188C37.9505 1.92188 37.9375 1.91406 37.9375 1.89844C37.9375 1.89323 37.9375 1.88802 37.9375 1.88281C37.9375 1.8776 38.1641 1.82031 38.6172 1.71094H38.2266C37.6953 1.71094 37.1641 1.70312 36.6328 1.6875C36.2318 1.67708 35.8359 1.67188 35.4453 1.67188C35.0547 1.67188 34.6719 1.67708 34.2969 1.6875C34.276 1.6875 34.2656 1.68229 34.2656 1.67188C34.2656 1.65625 34.2708 1.64844 34.2812 1.64844C35.25 1.4349 36.2865 1.2526 37.3906 1.10156C37.875 0.841146 38.401 0.619792 38.9688 0.4375C39 0.427083 39.0339 0.421875 39.0703 0.421875C39.1693 0.421875 39.25 0.445312 39.3125 0.492188C39.5104 0.622396 39.7188 0.6875 39.9375 0.6875H40.0078C40.2109 0.6875 40.4167 0.666667 40.625 0.625C40.8854 0.583333 41.099 0.5625 41.2656 0.5625C41.4271 0.5625 41.5807 0.588542 41.7266 0.640625C41.7839 0.661458 41.8203 0.692708 41.8359 0.734375L42.0625 0.71875C43.0104 0.635417 43.9661 0.59375 44.9297 0.59375H45.1016C45.4245 0.59375 45.7474 0.572917 46.0703 0.53125C46.6068 0.463542 47.1901 0.429688 47.8203 0.429688C48.2318 0.429688 48.6432 0.445312 49.0547 0.476562C48.6536 0.518229 48.3776 0.539062 48.2266 0.539062C48.2786 0.575521 48.3229 0.617188 48.3594 0.664062C48.5 0.820312 48.737 0.911458 49.0703 0.9375C49.2786 0.953125 49.4818 0.960938 49.6797 0.960938C49.7943 0.960938 49.9089 0.958333 50.0234 0.953125C50.138 0.947917 50.237 0.945312 50.3203 0.945312C50.3359 0.945312 50.3464 0.950521 50.3516 0.960938C50.3568 0.966146 50.3594 0.971354 50.3594 0.976562C50.3542 0.986979 50.3438 0.994792 50.3281 1C50.1146 1.02604 49.8854 1.0651 49.6406 1.11719C49.1562 1.22656 48.776 1.28125 48.5 1.28125C48.4062 1.28125 48.3151 1.27604 48.2266 1.26562C47.6849 1.30208 47.1432 1.38021 46.6016 1.5L46.0781 1.59375L46.1953 1.60156H46.2266C46.3099 1.60156 46.3828 1.61719 46.4453 1.64844C45.9661 1.7526 45.4792 1.80469 44.9844 1.80469L44.6641 1.8125C44.4245 1.8125 44.2578 1.8151 44.1641 1.82031C44.0755 1.82552 44.0052 1.84896 43.9531 1.89062L43.8906 1.92969C43.7344 2.33594 43.5573 2.66146 43.3594 2.90625C43.2031 3.11458 43.0469 3.38021 42.8906 3.70312L42.6562 4.21094C42.3438 4.86198 42.0625 5.51823 41.8125 6.17969C41.8125 6.1849 41.8099 6.1875 41.8047 6.1875C41.7891 6.1875 41.7812 6.18229 41.7812 6.17188C41.7969 5.89583 41.8255 5.6224 41.8672 5.35156C41.7214 5.5599 41.5469 5.96875 41.3438 6.57812C41.1406 7.18229 40.9271 7.84896 40.7031 8.57812C40.474 9.33333 40.2578 10.0104 40.0547 10.6094C39.8516 11.2031 39.6849 11.5677 39.5547 11.7031C39.5026 11.75 39.474 11.7995 39.4688 11.8516C39.4115 12.1641 39.1641 12.4818 38.7266 12.8047C38.6797 12.7786 38.6562 12.7526 38.6562 12.7266C38.6562 12.7057 38.6797 12.6745 38.7266 12.6328C38.7734 12.5859 38.7969 12.5521 38.7969 12.5312C38.7969 12.5104 38.7812 12.487 38.75 12.4609C38.6042 12.5078 38.5052 12.5677 38.4531 12.6406C38.401 12.7083 38.3646 12.7812 38.3438 12.8594C38.3333 12.8958 38.3203 12.9349 38.3047 12.9766C38.2891 13.013 38.276 13.0547 38.2656 13.1016C38.25 13.1745 38.224 13.2448 38.1875 13.3125C38.151 13.3802 38.0885 13.4453 38 13.5078ZM40.125 9L40.5938 8.08594C40.599 8.01302 40.6094 7.9401 40.625 7.86719C40.5 7.97656 40.3932 8.14062 40.3047 8.35938C40.2161 8.57292 40.1562 8.78646 40.125 9ZM39.8672 9.92188C39.9922 9.69792 40.0781 9.47396 40.125 9.25C40.026 9.46875 39.9375 9.6901 39.8594 9.91406L39.8672 9.92188ZM38.8203 0.976562L39.0312 0.96875C39.0052 0.953125 38.9792 0.945312 38.9531 0.945312L38.8203 0.976562Z" fill="black"/>
</svg>
