<svg width="70" height="70" viewBox="0 0 70 70" fill="none" xmlns="http://www.w3.org/2000/svg">
<path d="M35.0026 5.83337C31.1724 5.83337 27.3797 6.58779 23.841 8.05355C20.3023 9.51932 17.087 11.6677 14.3787 14.3761C8.90884 19.8459 5.83594 27.2646 5.83594 35C5.83594 47.8917 14.2068 58.8292 25.7859 62.7084C27.2443 62.9417 27.7109 62.0375 27.7109 61.25C27.7109 60.5792 27.7109 58.7417 27.7109 56.3209C19.6318 58.0709 17.9109 52.4125 17.9109 52.4125C16.5693 49.0292 14.6734 48.125 14.6734 48.125C12.0193 46.3167 14.8776 46.375 14.8776 46.375C17.7943 46.5792 19.3401 49.3792 19.3401 49.3792C21.8776 53.8125 26.1651 52.5 27.8276 51.8C28.0901 49.9042 28.8484 48.6209 29.6651 47.8917C23.1901 47.1625 16.3943 44.6542 16.3943 33.5417C16.3943 30.3042 17.5026 27.7084 19.3984 25.6375C19.1068 24.9084 18.0859 21.875 19.6901 17.9375C19.6901 17.9375 22.1401 17.15 27.7109 20.9125C30.0151 20.2709 32.5234 19.95 35.0026 19.95C37.4818 19.95 39.9901 20.2709 42.2943 20.9125C47.8651 17.15 50.3151 17.9375 50.3151 17.9375C51.9193 21.875 50.8984 24.9084 50.6068 25.6375C52.5026 27.7084 53.6109 30.3042 53.6109 33.5417C53.6109 44.6834 46.7859 47.1334 40.2818 47.8625C41.3318 48.7667 42.2943 50.5459 42.2943 53.2584V61.25C42.2943 62.0375 42.7609 62.9709 44.2484 62.7084C55.8276 58.8 64.1693 47.8917 64.1693 35C64.1693 31.1698 63.4149 27.3771 61.9491 23.8384C60.4833 20.2998 58.3349 17.0845 55.6265 14.3761C52.9182 11.6677 49.7029 9.51932 46.1642 8.05355C42.6255 6.58779 38.8328 5.83337 35.0026 5.83337Z" fill="white"/>
</svg>
