<svg width="100" height="100" viewBox="0 0 100 100" fill="none" xmlns="http://www.w3.org/2000/svg">
<path d="M87.2761 34.6042C87.2302 31.4501 86.6469 28.3209 85.5302 25.3709C83.576 20.3334 79.5969 16.3501 74.5594 14.4001C71.6469 13.3042 68.5677 12.7167 65.451 12.6501C61.4427 12.4709 60.1719 12.4209 49.9969 12.4209C39.8219 12.4209 38.5177 12.4209 34.5385 12.6501C31.426 12.7167 28.3469 13.3042 25.4344 14.4001C20.3969 16.3501 16.4135 20.3334 14.4635 25.3709C13.3677 28.2834 12.776 31.3626 12.7177 34.4751C12.5385 38.4876 12.4844 39.7584 12.4844 49.9334C12.4844 60.1084 12.4844 61.4084 12.7177 65.3917C12.7802 68.5084 13.3677 71.5834 14.4635 74.5042C16.4177 79.5376 20.3969 83.5209 25.4385 85.4709C28.3385 86.6042 31.4177 87.2459 34.5427 87.3459C38.5552 87.5251 39.826 87.5792 50.001 87.5792C60.176 87.5792 61.4802 87.5792 65.4594 87.3459C68.5719 87.2834 71.651 86.6959 74.5677 85.6001C79.6052 83.6459 83.5844 79.6626 85.5386 74.6292C86.6344 71.7126 87.2219 68.6376 87.2844 65.5167C87.4635 61.5084 87.5177 60.2376 87.5177 50.0584C87.5094 39.8834 87.5094 38.5917 87.2761 34.6042ZM49.9719 69.1751C39.3302 69.1751 30.7094 60.5542 30.7094 49.9126C30.7094 39.2709 39.3302 30.6501 49.9719 30.6501C60.6052 30.6501 69.2344 39.2709 69.2344 49.9126C69.2344 60.5542 60.6052 69.1751 49.9719 69.1751ZM70.001 34.4292C67.5135 34.4292 65.5094 32.4209 65.5094 29.9376C65.5094 27.4542 67.5135 25.4459 70.001 25.4459C72.4802 25.4459 74.4885 27.4542 74.4885 29.9376C74.4885 32.4209 72.4802 34.4292 70.001 34.4292Z" fill="black"/>
<path d="M49.9734 62.4249C56.8839 62.4249 62.4859 56.8229 62.4859 49.9124C62.4859 43.0019 56.8839 37.3999 49.9734 37.3999C43.063 37.3999 37.4609 43.0019 37.4609 49.9124C37.4609 56.8229 43.063 62.4249 49.9734 62.4249Z" fill="white"/>
</svg>
