<svg width="243" height="35" viewBox="0 0 243 35" fill="none" xmlns="http://www.w3.org/2000/svg">
<path d="M24.675 33H33.585L20.76 15.585L31.56 1.5H22.695L12.165 15.36L24.675 33ZM0.375 33H7.98V1.5H0.375V33ZM38.2559 1.5V7.845H45.8609V1.5H38.2559ZM38.2559 33H45.8609V12.75H38.2559V33ZM72.876 33C79.221 33 82.506 28.545 82.506 23.955C82.506 20.94 81.111 17.88 78.186 15.99C79.311 14.415 79.896 12.525 79.896 10.635C79.896 6.045 76.611 1.5 70.041 1.5H52.626V7.215H68.466C71.031 7.215 72.336 8.97 72.336 10.68C72.336 12.435 71.031 14.145 68.466 14.145H52.626V19.77H71.301C73.866 19.77 75.171 21.525 75.171 23.28C75.171 25.08 73.866 26.835 71.301 26.835H52.626V33H72.876ZM123.454 17.25C123.454 6 113.734 0.464998 105.499 0.464998C97.2185 0.464998 87.5435 6 87.5435 17.25C87.5435 28.5 97.2185 34.035 105.499 34.035C113.734 34.035 123.454 28.5 123.454 17.25ZM115.669 17.25C115.669 23.685 110.179 26.79 105.499 26.79C100.774 26.79 95.2835 23.685 95.2835 17.25C95.2835 10.815 100.774 7.665 105.499 7.665C110.179 7.665 115.669 10.815 115.669 17.25ZM101.989 17.295C101.989 19.41 103.339 20.76 105.499 20.76C107.614 20.76 108.964 19.41 108.964 17.295C108.964 15.18 107.614 13.785 105.499 13.785C103.339 13.785 101.989 15.18 101.989 17.295ZM128.544 17.25C128.544 28.32 138.039 34.035 146.139 34.035C152.394 34.035 157.794 31.245 161.259 26.97L155.634 22.065C153.699 24.54 150.909 26.7 146.499 26.7C139.794 26.7 136.419 21.975 136.419 17.25C136.419 12.48 139.794 7.755 146.499 7.755C149.964 7.755 153.609 9.735 155.634 12.3L161.259 7.395C157.884 3.03 152.484 0.464998 146.184 0.464998C138.084 0.464998 128.544 6.18 128.544 17.25ZM142.989 17.295C142.989 19.41 144.339 20.76 146.499 20.76C148.614 20.76 149.964 19.41 149.964 17.295C149.964 15.18 148.614 13.785 146.499 13.785C144.339 13.785 142.989 15.18 142.989 17.295ZM174.137 14.055V1.5H166.532V33H174.137V20.4H186.557V14.055H174.137ZM191.507 33H199.067V1.5H191.507V33ZM204.784 33H212.839L223.864 10.05L234.889 33H242.944L227.734 1.05H220.039L204.784 33Z" fill="black"/>
</svg>
