<svg width="92" height="92" viewBox="0 0 92 92" fill="none" xmlns="http://www.w3.org/2000/svg">
<g clip-path="url(#clip0_139_20)">
<path d="M73.715 58.4969L63.9784 57.3852C61.64 57.1169 59.34 57.9219 57.6917 59.5702L50.6384 66.6236C39.79 61.1036 30.8967 52.2486 25.3767 41.3619L32.4684 34.2702C34.1167 32.6219 34.9217 30.3219 34.6534 27.9836L33.5417 18.3236C33.0817 14.4519 29.8234 11.5386 25.9134 11.5386H19.2817C14.95 11.5386 11.3467 15.1419 11.615 19.4736C13.6467 52.2102 39.8284 78.3536 72.5267 80.3852C76.8584 80.6536 80.4617 77.0502 80.4617 72.7186V66.0869C80.5 62.2152 77.5867 58.9569 73.715 58.4969Z" fill="black"/>
</g>
<defs>
<clipPath id="clip0_139_20">
<rect width="92" height="92" fill="white"/>
</clipPath>
</defs>
</svg>
