<svg width="66" height="66" viewBox="0 0 66 66" fill="none" xmlns="http://www.w3.org/2000/svg">
<path d="M55.6768 5.83887H52.0486V48.1837L40.4572 59.7749H13.5649V63.136C13.5649 64.1736 14.4059 65.0146 15.4435 65.0146H55.6768C56.7145 65.0146 57.5555 64.1737 57.5555 63.136C57.5555 61.2616 57.5555 8.71515 57.5555 7.71742C57.5555 6.67998 56.7145 5.83887 55.6768 5.83887Z" fill="#F4CC7A"/>
<path d="M16.6662 63.1354V59.7744H13.5649V63.1355C13.5649 64.1731 14.4059 65.0141 15.4435 65.0141H18.5448C17.5073 65.0139 16.6662 64.173 16.6662 63.1354Z" fill="#F2BB6B"/>
<path d="M54.5698 50.0447C54.9656 49.6563 55.1499 48.9821 55.1499 48.3893V5.83887H52.0484V48.1837L40.457 59.7749H44.7179L54.5698 50.0447Z" fill="#F2BB6B"/>
<path d="M52.4353 48.1835V2.86416C52.4353 1.82659 51.5943 0.985352 50.5566 0.985352H10.3233C9.28569 0.985352 8.44458 1.82646 8.44458 2.86416V58.2826C8.44458 59.3201 9.28544 60.1612 10.3233 60.1612H40.4573L52.4353 48.1835Z" fill="#FCD28D"/>
<path d="M11.6654 58.2826V2.86416C11.6654 1.82659 12.5063 0.985352 13.5441 0.985352H10.3233C9.28569 0.985352 8.44458 1.82646 8.44458 2.86416V58.2826C8.44458 59.3201 9.28544 60.1612 10.3233 60.1612H13.5442C12.5064 60.1612 11.6654 59.3202 11.6654 58.2826Z" fill="#F7C781"/>
<path d="M30.2228 24.4856C30.2228 25.5232 29.3819 26.3644 28.3442 26.3644H15.9768C14.9391 26.3644 14.0981 25.5233 14.0981 24.4856V8.3611C14.0981 7.32379 14.939 6.48242 15.9768 6.48242H28.3442C29.3818 6.48242 30.2228 7.32366 30.2228 8.3611V24.4856Z" fill="#F23B3B"/>
<path d="M17.3555 24.4856V8.3611C17.3555 7.32379 18.1963 6.48242 19.2343 6.48242H15.9768C14.9391 6.48242 14.0981 7.32366 14.0981 8.3611V24.4857C14.0981 25.5233 14.939 26.3645 15.9768 26.3645H19.2343C18.1966 26.3644 17.3555 25.5232 17.3555 24.4856Z" fill="#C62222"/>
<path d="M25.1352 20.1553H19.1862C18.1486 20.1553 17.3076 20.9963 17.3076 22.034V26.3651H27.0137V22.034C27.0137 20.9965 26.1726 20.1553 25.1352 20.1553Z" fill="#88DCE5"/>
<path d="M22.5078 20.1553H19.1862C18.1486 20.1553 17.3076 20.9963 17.3076 22.034V26.3651H20.6291V22.034C20.6291 20.9965 21.47 20.1553 22.5078 20.1553Z" fill="#74C4C4"/>
<path d="M22.1604 17.2846C23.8956 17.2846 25.3022 15.878 25.3022 14.1428C25.3022 12.4076 23.8956 11.001 22.1604 11.001C20.4252 11.001 19.0186 12.4076 19.0186 14.1428C19.0186 15.878 20.4252 17.2846 22.1604 17.2846Z" fill="#F4CF9D"/>
<path d="M22.6123 11.0337C20.6979 10.7594 19.0188 12.2439 19.0188 14.143C19.0188 15.8783 20.4254 17.2849 22.1606 17.2849C23.0144 17.2849 23.7883 16.9438 24.3546 16.3911C21.7809 16.0207 20.7552 12.8465 22.6123 11.0337Z" fill="#F7C781"/>
<path d="M52.4353 48.1836C51.2127 48.1836 40.4189 48.1836 39.115 48.1836C38.0774 48.1836 37.2363 49.0247 37.2363 50.0621V60.1614H40.4573L52.4353 48.1836Z" fill="#F7C781"/>
<path d="M52.4352 48.1836H42.3358C41.2983 48.1836 40.4573 49.0247 40.4573 50.0621V60.1614L52.4352 48.1836Z" fill="#EAAD54"/>
<path d="M28.3416 27.3282C29.9113 27.3282 31.1881 26.0511 31.1881 24.4815V14.1721C31.1881 13.6381 30.7554 13.2053 30.2213 13.2053C29.6873 13.2053 29.2545 13.6381 29.2545 14.1721V24.4815C29.2545 24.9849 28.845 25.3944 28.3417 25.3944H27.9772V22.0275C27.9772 20.4578 26.7002 19.181 25.1308 19.181H19.1783C17.6086 19.181 16.3318 20.458 16.3318 22.0275V25.3944H15.9672C15.464 25.3944 15.0545 24.9849 15.0545 24.4815V8.34748C15.0545 7.84423 15.464 7.4347 15.9672 7.4347H28.3419C28.8451 7.4347 29.2546 7.84423 29.2546 8.34748V10.8204C29.2546 11.3545 29.6874 11.7872 30.2214 11.7872C30.7555 11.7872 31.1882 11.3545 31.1882 10.8204V8.34748C31.1882 6.77779 29.9113 5.50098 28.3417 5.50098H15.9671C14.3974 5.50098 13.1206 6.77792 13.1206 8.34748V24.4815C13.1206 26.0512 14.3976 27.3282 15.9671 27.3282H28.3416ZM18.2654 25.3944V22.0275C18.2654 21.5243 18.6749 21.1147 19.1782 21.1147H25.1307C25.6339 21.1147 26.0433 21.5243 26.0433 22.0275V25.3944H18.2654Z" fill="black"/>
<path d="M18.0435 14.1322C18.0435 16.3989 19.8876 18.243 22.1541 18.243C24.4207 18.243 26.2648 16.3989 26.2648 14.1322C26.2648 11.8656 24.4207 10.0215 22.1541 10.0215C19.8876 10.0215 18.0435 11.8656 18.0435 14.1322ZM24.331 14.1322C24.331 15.3327 23.3545 16.3093 22.154 16.3093C20.9535 16.3093 19.9771 15.3327 19.9771 14.1322C19.9771 12.9317 20.9535 11.9552 22.154 11.9552C23.3545 11.9552 24.331 12.9318 24.331 14.1322Z" fill="black"/>
<path d="M18.9561 31.6504C18.9561 32.1844 19.3888 32.6172 19.9229 32.6172H46.7979C47.3319 32.6172 47.7647 32.1844 47.7647 31.6504C47.7647 31.1163 47.3319 30.6836 46.7979 30.6836H19.9229C19.3888 30.6835 18.9561 31.1163 18.9561 31.6504Z" fill="black"/>
<path d="M46.7979 36.4219H19.9229C19.3888 36.4219 18.9561 36.8546 18.9561 37.3887C18.9561 37.9227 19.3888 38.3555 19.9229 38.3555H46.7979C47.3319 38.3555 47.7647 37.9227 47.7647 37.3887C47.7647 36.8546 47.3318 36.4219 46.7979 36.4219Z" fill="black"/>
<path d="M46.7979 44.0938C47.3319 44.0938 47.7647 43.661 47.7647 43.127C47.7647 42.5929 47.3319 42.1602 46.7979 42.1602H19.9229C19.3888 42.1602 18.9561 42.5929 18.9561 43.127C18.9561 43.661 19.3888 44.0938 19.9229 44.0938H46.7979Z" fill="black"/>
<path d="M16.2051 30.6836H15.2654C14.7313 30.6836 14.2986 31.1163 14.2986 31.6504C14.2986 32.1844 14.7313 32.6172 15.2654 32.6172H16.2051C16.7392 32.6172 17.1719 32.1844 17.1719 31.6504C17.1719 31.1165 16.7392 30.6836 16.2051 30.6836Z" fill="black"/>
<path d="M16.2051 36.4219H15.2654C14.7313 36.4219 14.2986 36.8546 14.2986 37.3887C14.2986 37.9227 14.7313 38.3555 15.2654 38.3555H16.2051C16.7392 38.3555 17.1719 37.9227 17.1719 37.3887C17.1719 36.8546 16.7392 36.4219 16.2051 36.4219Z" fill="black"/>
<path d="M16.2051 42.1602H15.2654C14.7313 42.1602 14.2986 42.5929 14.2986 43.127C14.2986 43.661 14.7313 44.0938 15.2654 44.0938H16.2051C16.7392 44.0938 17.1719 43.661 17.1719 43.127C17.1719 42.5929 16.7392 42.1602 16.2051 42.1602Z" fill="black"/>
<path d="M57.5699 31.6397C58.1039 31.6397 58.5367 31.2069 58.5367 30.6729V7.70254C58.5367 6.13284 57.2597 4.85603 55.6902 4.85603H53.4134V2.84664C53.4134 1.27707 52.1365 0 50.5669 0H10.31C8.74032 0 7.46338 1.27707 7.46338 2.84664V58.2976C7.46338 59.8673 8.74032 61.1441 10.3099 61.1441H12.5868V63.1535C12.5868 64.7231 13.8637 65.9999 15.4333 65.9999H55.6902C57.2599 65.9999 58.5367 64.7229 58.5367 63.1535V34.0245C58.5367 33.4905 58.1039 33.0578 57.5699 33.0578C57.0358 33.0578 56.6031 33.4905 56.6031 34.0245V63.1536C56.6031 63.6569 56.1936 64.0663 55.6903 64.0663H15.4334C14.9301 64.0663 14.5206 63.6569 14.5206 63.1536V61.1442C41.7589 61.1442 40.6177 61.2057 40.9512 61.0099C41.0405 60.9574 41.0973 60.9091 41.1453 60.8612C53.8039 48.2027 53.1545 48.8633 53.2333 48.7529C53.3433 48.5983 53.4051 48.4214 53.4119 48.2251C53.4123 48.2142 53.4134 48.2035 53.4134 48.1925V6.78962H55.6902C56.1934 6.78962 56.603 7.19916 56.603 7.70241V30.6727C56.6031 31.2068 57.0359 31.6397 57.5699 31.6397ZM10.31 59.2105C9.80677 59.2105 9.39723 58.801 9.39723 58.2977V2.84664C9.39723 2.34326 9.80677 1.93372 10.31 1.93372H50.5669C51.0702 1.93372 51.4797 2.34326 51.4797 2.84664V47.2256H42.3413C40.7716 47.2256 39.4948 48.5025 39.4948 50.072V59.2104C38.303 59.2105 11.571 59.2105 10.31 59.2105ZM41.4284 57.8431V50.072C41.4284 49.5687 41.8379 49.1593 42.3412 49.1593H50.1123C49.1919 50.0798 42.3488 56.9229 41.4284 57.8431Z" fill="black"/>
</svg>
