<svg height="30" viewBox="0 0 24 24" width="30" xmlns="http://www.w3.org/2000/svg"><path d="m16.9994165 16.2923098 3.8541369 3.8541368c.1952621.1952622.1952621.5118446 0 .7071068-.1952622.1952621-.5118446.1952621-.7071068 0l-3.8541368-3.8541369c-1.4103486 1.2450743-3.2630999 2.0005835-5.2923098 2.0005835-4.418278 0-8-3.581722-8-8s3.581722-8 8-8 8 3.581722 8 8c0 2.0292099-.7555092 3.8819612-2.0005835 5.2923098zm-5.9994165 1.7076902c3.8659932 0 7-3.1340068 7-7 0-3.86599325-3.1340068-7-7-7-3.86599325 0-7 3.13400675-7 7 0 3.8659932 3.13400675 7 7 7z"/></svg>