<svg width="100" height="100" viewBox="0 0 100 100" fill="none" xmlns="http://www.w3.org/2000/svg">
<path d="M80.667 14H19.315C16.381 14 14 16.325 14 19.188V80.805C14 83.672 16.381 86 19.315 86H80.667C83.603 86 86 83.672 86 80.805V19.188C86 16.325 83.603 14 80.667 14ZM35.354 75.354H24.67V40.995H35.354V75.354ZM30.012 36.297C26.589 36.297 23.822 33.523 23.822 30.103C23.822 26.688 26.589 23.914 30.012 23.914C33.427 23.914 36.201 26.688 36.201 30.103C36.201 33.523 33.427 36.297 30.012 36.297ZM75.35 75.354H64.683V58.646C64.683 54.66 64.605 49.535 59.132 49.535C53.574 49.535 52.727 53.876 52.727 58.357V75.355H42.052V40.995H52.297V45.687H52.443C53.869 42.987 57.353 40.138 62.549 40.138C73.355 40.138 75.351 47.252 75.351 56.507L75.35 75.354Z" fill="black"/>
</svg>
