<svg width="100" height="100" viewBox="0 0 100 100" fill="none" xmlns="http://www.w3.org/2000/svg">
<g clip-path="url(#clip0_205_11)">
<path d="M99.8016 19.0408C96.1234 20.6533 92.1859 21.7627 88.0359 22.2658C92.2703 19.7252 95.5078 15.7064 97.0516 10.9189C93.0797 13.2314 88.6859 14.9064 84.0141 15.8533C80.2891 11.8658 74.9641 9.35645 69.0547 9.35645C57.7266 9.35645 48.5453 18.5346 48.5453 29.8471C48.5453 31.4752 48.7422 33.0377 49.0828 34.5189C32.0422 33.7221 16.9359 25.5346 6.83281 13.1658C5.05781 16.1783 4.04844 19.6783 4.04844 23.4877C4.04844 30.6158 7.67656 36.8658 13.1609 40.5408C9.80781 40.4439 6.65156 39.5158 3.88594 37.9877V38.2346C3.88594 48.1752 10.9484 56.4627 20.3234 58.3502C18.6141 58.8033 16.7891 59.0658 14.9359 59.0658C13.6203 59.0658 12.3641 58.9377 11.1109 58.7064C13.7484 66.8439 21.2984 72.7689 30.2984 72.9471C23.3016 78.4314 14.4328 81.7002 4.87656 81.7002C3.24844 81.7002 1.62344 81.6221 -0.0078125 81.4252C9.10781 87.2377 19.8672 90.6377 31.4891 90.6377C69.1984 90.6377 89.8047 59.4033 89.8047 32.3533C89.8047 31.4908 89.8047 30.6127 89.7391 29.7314C93.7609 26.8658 97.2422 23.2346 99.9922 19.1189L99.8016 19.0408Z" fill="black"/>
</g>
<defs>
<clipPath id="clip0_205_11">
<rect width="100" height="100" fill="white"/>
</clipPath>
</defs>
</svg>
