<svg width="60" height="60" viewBox="0 0 60 60" fill="none" xmlns="http://www.w3.org/2000/svg">
<g clip-path="url(#clip0_211_328)">
<path d="M51.4256 18.827C51.0384 18.7488 50.7481 18.7097 50.5545 18.7097C49.1221 18.7097 47.8833 19.1984 46.838 20.176C44.4765 19.1202 42.2698 18.26 40.218 17.5953C36.8499 16.5005 33.327 15.6012 29.6492 14.8974C29.3008 13.9589 28.7782 13.1769 28.0813 12.5513C29.0491 7.93744 30.3461 3.75367 31.972 0C36.8499 0.351906 41.331 1.77908 45.4153 4.28153C49.4996 6.78397 52.7999 10.0684 55.3163 14.1349C53.8839 15.6989 52.587 17.263 51.4256 18.827ZM24.4809 11.2023C23.4744 11.2023 22.5259 11.4761 21.6355 12.0235C18.4997 9.67742 15.3446 7.68328 12.17 6.04106C16.9705 2.36559 22.3517 0.351906 28.3136 0C26.8038 3.40176 25.5843 7.13587 24.6552 11.2023H24.4809ZM4.33055 14.8387C5.64681 12.61 7.31149 10.4985 9.3246 8.5044C11.9571 9.87292 14.6864 11.5543 17.5125 13.5484C12.5185 13.4311 8.12448 13.8612 4.33055 14.8387ZM18.9062 17.1848C18.9836 18.3969 19.3998 19.4624 20.1547 20.3812C20.9096 21.3001 21.8484 21.9159 22.9711 22.2287C22.7388 24.9658 22.6227 27.566 22.6227 30.0293C22.6227 31.7498 22.6808 33.7243 22.7969 35.9531C21.9452 36.2268 21.1903 36.696 20.5322 37.3607C18.4416 36.5396 16.4285 35.6012 14.4929 34.5455C14.9187 33.6852 15.1316 32.8055 15.1316 31.9062C15.1316 30.3421 14.5896 29.0127 13.5057 27.9179C12.4217 26.8231 11.1054 26.2757 9.55688 26.2757C7.85348 26.2757 6.44044 26.9404 5.31774 28.2698C3.69177 26.784 2.24002 25.2395 0.962469 23.6364C1.31089 21.955 1.83352 20.2933 2.53037 18.651C7.25342 17.3216 12.712 16.8328 18.9062 17.1848ZM4.0402 32.3754C4.15634 33.8221 4.74672 35.044 5.81134 36.0411C6.87596 37.0381 8.12448 37.5367 9.55688 37.5367C9.98273 37.5367 10.4473 37.4585 10.9506 37.3021C13.4282 38.7488 16.0801 40 18.9062 41.0557V41.2903C18.9062 42.8153 19.4192 44.1153 20.4451 45.1906C21.471 46.2659 22.7388 46.8426 24.2487 46.9208C25.2165 51.6911 26.5715 56.0508 28.3136 60C24.4422 59.7654 20.7838 58.8172 17.3383 57.1554C13.8928 55.4936 10.9215 53.3333 8.42451 50.6745C5.92748 48.0156 3.94341 44.8876 2.4723 41.2903C1.00118 37.6931 0.265625 33.9394 0.265625 30.0293C0.265625 29.9902 0.284982 29.4624 0.323695 28.4457C1.40767 29.8143 2.64651 31.1241 4.0402 32.3754ZM29.3589 43.9296C32.1462 44.4379 34.953 44.7703 37.7791 44.9267C38.05 45.7087 38.4759 46.4321 39.0566 47.0968C38.1662 51.2023 37.6242 55.1906 37.4306 59.0616C35.4562 59.5699 33.6367 59.8827 31.972 60C30.1525 55.8162 28.7394 51.085 27.7329 45.8064C28.4297 45.3372 28.9717 44.7116 29.3589 43.9296ZM47.3607 46.7449C47.8639 46.1193 48.2124 45.4545 48.4059 44.7507C51.232 44.5161 53.9613 44.1447 56.5938 43.6364C54.7356 47.3118 52.1805 50.4985 48.9286 53.1965C48.5801 51.1632 48.0575 49.0127 47.3607 46.7449ZM37.8952 41.173C35.1852 41.0166 32.514 40.6647 29.8815 40.1173C29.4556 38.1623 28.3523 36.8133 26.5715 36.0704C26.4166 33.7634 26.3392 31.7498 26.3392 30.0293C26.3392 27.4487 26.4553 24.7703 26.6876 21.9941C26.765 21.9941 26.8618 21.955 26.978 21.8768C27.0941 21.7986 27.1715 21.7595 27.2103 21.7595C28.7201 23.2454 30.0363 24.6139 31.159 25.8651C34.5271 29.6188 37.3919 33.8807 39.7534 38.651C38.9017 39.3157 38.2823 40.1564 37.8952 41.173ZM43.0635 48.7977C43.1409 48.7977 43.3538 48.7781 43.7022 48.739C44.3604 51.1241 44.8443 53.4897 45.154 55.8358C44.0313 56.5005 42.6763 57.1652 41.0891 57.8299C41.3601 54.7801 41.8246 51.7498 42.4827 48.739C42.7925 48.7781 42.986 48.7977 43.0635 48.7977ZM42.7731 34.7801C42.7344 34.8583 42.686 34.9756 42.6279 35.132C42.5699 35.2884 42.5215 35.4057 42.4827 35.4839C40.0438 31.0264 37.179 26.9795 33.8883 23.3431C32.6882 21.9746 31.2558 20.4888 29.5911 18.8856C29.6299 18.8856 29.6589 18.8563 29.6782 18.7977L29.7073 18.7097C32.9592 19.3744 36.0757 20.1955 39.0566 21.173C40.8761 21.7595 42.8699 22.5415 45.0378 23.5191C44.9604 23.9101 44.9217 24.2033 44.9217 24.3988C44.9217 25.5718 45.2701 26.6471 45.967 27.6246C44.6894 30.088 43.6248 32.4731 42.7731 34.7801ZM45.5024 38.1818C45.967 36.8133 46.1993 36.1095 46.1993 36.0704C46.9735 34.1153 47.9414 32.0235 49.1028 29.7947C49.606 29.9511 50.09 30.0293 50.5545 30.0293C51.8708 30.0293 53.0515 29.5797 54.0968 28.6804C55.9938 30.0098 57.852 31.4956 59.6716 33.1378C59.4393 35.3666 58.9747 37.5171 58.2779 39.5894C55.1034 40.2542 51.7546 40.7234 48.2317 40.9971C47.7284 39.7458 46.8187 38.8074 45.5024 38.1818ZM56.1293 24.3402C56.1293 23.0499 55.7034 21.8768 54.8517 20.8211C55.6647 19.7654 56.4777 18.8074 57.2907 17.9472C58.6844 21.1535 59.4974 24.4575 59.7296 27.8592C58.4521 26.8817 57.2133 26.002 56.0131 25.2199C56.0906 24.868 56.1293 24.5748 56.1293 24.3402Z" fill="white"/>
</g>
<defs>
<clipPath id="clip0_211_328">
<rect width="60" height="60" fill="w"/>
</clipPath>
</defs>
</svg>
