<svg width="35" height="35" viewBox="0 0 35 35" fill="none" xmlns="http://www.w3.org/2000/svg">
<path d="M23.7727 4.375H19.075C18.6375 4.375 18.2164 4.58008 17.8938 4.94922L12.518 11.1016C12.5125 11.1084 12.507 11.1221 12.5016 11.1289C11.5938 12.1953 11.6102 13.8975 12.3867 14.957C13.0813 15.9072 14.5414 16.1602 15.4547 15.1416C15.4602 15.1348 15.4711 15.1348 15.4766 15.1279L19.8461 10.124C20.2016 9.7207 20.7594 9.74805 21.082 10.1924C21.4102 10.6367 21.3828 11.3271 21.0273 11.7373L19.6 13.3711L27.5625 21.4512C27.7211 21.6152 27.8633 21.793 27.9945 21.9775V8.75L25.0086 5.01758C24.6859 4.60742 24.2375 4.375 23.7727 4.375ZM29.75 8.76367V24.0693C29.75 25.2793 30.532 26.2568 31.5 26.2568H35V8.76367H29.75ZM32.375 24.0693C31.8937 24.0693 31.5 23.5771 31.5 22.9756C31.5 22.374 31.8937 21.8818 32.375 21.8818C32.8563 21.8818 33.25 22.374 33.25 22.9756C33.25 23.5771 32.8563 24.0693 32.375 24.0693ZM0 26.25H3.5C4.46797 26.25 5.25 25.2725 5.25 24.0625V8.76367H0V26.25ZM2.625 21.8818C3.10625 21.8818 3.5 22.374 3.5 22.9756C3.5 23.5771 3.10625 24.0693 2.625 24.0693C2.14375 24.0693 1.75 23.5771 1.75 22.9756C1.75 22.3672 2.14375 21.8818 2.625 21.8818ZM26.4633 23.1533L18.2984 14.8682L16.6578 16.748C15.0336 18.6006 12.5453 18.4229 11.0961 16.4473C9.625 14.4375 9.73984 11.3271 11.3367 9.49512L15.8102 4.375H11.2273C10.7625 4.375 10.3195 4.60742 9.99141 5.01758L7 8.75V24.0557H8.00078L12.95 29.6543C14.4484 31.1787 16.6523 30.8916 17.8719 29.0186L17.8828 29.0049L18.8617 30.0645C19.7312 30.9531 21.0164 30.7822 21.7219 29.6953L23.4391 27.0566L23.7344 27.3574C24.4836 28.1162 25.5883 27.9795 26.1953 27.0361L26.7148 26.2363C27.3273 25.293 27.2125 23.9189 26.4633 23.1533Z" fill="white"/>
</svg>
