<svg width="35" height="35" viewBox="0 0 35 35" fill="none" xmlns="http://www.w3.org/2000/svg">
<g clip-path="url(#clip0_120_355)">
<path d="M33.4049 34.7607L29.1667 26.25H28.1185C27.8754 26.7741 27.5109 27.526 27.0247 28.5059C26.5386 29.4857 26.1892 30.1921 25.9766 30.625H20.4167V32.8125C20.4167 33.4277 20.128 33.9461 19.5508 34.3677C18.9735 34.7892 18.2823 35 17.4772 35C16.6721 35 15.9885 34.7835 15.4264 34.3506C14.8644 33.9176 14.5833 33.4049 14.5833 32.8125V30.625H8.97787C8.79557 30.1921 8.46137 29.4857 7.97526 28.5059C7.48915 27.526 7.12457 26.7741 6.88151 26.25H5.83333L1.59505 34.7607C0.531684 34.3506 0 33.7012 0 32.8125V26.25C0 25.6348 0.77474 24.7518 2.32422 23.6011C3.8737 22.4504 5.0434 21.875 5.83333 21.875C5.83333 18.776 6.32704 15.734 7.31445 12.749C8.30187 9.764 9.69184 7.13216 11.4844 4.85352C13.2769 2.57487 15.2821 0.957031 17.5 0C19.7179 0.957031 21.7231 2.57487 23.5156 4.85352C25.3082 7.13216 26.6981 9.764 27.6855 12.749C28.673 15.734 29.1667 18.776 29.1667 21.875C29.9566 21.875 31.1263 22.4504 32.6758 23.6011C34.2253 24.7518 35 25.6348 35 26.25V32.8125C35 33.7012 34.4683 34.3506 33.4049 34.7607ZM17.5 8.75C15.8898 8.75 14.515 9.17725 13.3757 10.0317C12.2363 10.8862 11.6667 11.9173 11.6667 13.125C11.6667 14.3327 12.2363 15.3638 13.3757 16.2183C14.515 17.0728 15.8898 17.5 17.5 17.5C19.1102 17.5 20.485 17.0728 21.6243 16.2183C22.7637 15.3638 23.3333 14.3327 23.3333 13.125C23.3333 11.9173 22.7637 10.8862 21.6243 10.0317C20.485 9.17725 19.1102 8.75 17.5 8.75Z" fill="white"/>
</g>
<defs>
<clipPath id="clip0_120_355">
<rect width="35" height="35" fill="white"/>
</clipPath>
</defs>
</svg>
