<svg width="35" height="35" viewBox="0 0 35 35" fill="none" xmlns="http://www.w3.org/2000/svg">
<g clip-path="url(#clip0_120_347)">
<path d="M23.59 16.6455L25.7897 18.8672L23.0486 21.6357C22.8455 21.8408 22.8455 22.0459 23.0486 22.251L23.6239 22.832C23.8269 23.0371 24.03 23.0371 24.233 22.832L26.9742 20.0635L31.2043 24.3359L28.4632 27.1045C28.2601 27.3096 28.2601 27.5033 28.4632 27.6855L29.0385 28.3008C29.2415 28.5059 29.4446 28.5059 29.6476 28.3008L32.3888 25.5322L34.5208 27.6855C34.7238 27.8906 34.8253 28.1413 34.8253 28.4375C34.8253 28.7337 34.7238 28.9958 34.5208 29.2236L29.1062 34.6924C28.8806 34.8975 28.6211 35 28.3278 35C28.0345 35 27.7864 34.8975 27.5833 34.6924L16.6526 23.6523L10.2904 30.0781C9.92944 30.4427 9.48951 30.625 8.97061 30.625C8.45171 30.625 8.01177 30.4427 7.6508 30.0781L5.07886 27.4463C4.71789 27.0817 4.5374 26.6431 4.5374 26.1304C4.5374 25.6177 4.71789 25.179 5.07886 24.8145L11.441 18.3887L0.476446 7.31445C0.273399 7.10938 0.171875 6.85872 0.171875 6.5625C0.171875 6.26628 0.273399 6.01562 0.476446 5.81055L5.89105 0.307617C6.11666 0.102539 6.37611 0 6.6694 0C6.96269 0 7.21086 0.102539 7.41391 0.307617L9.54591 2.46094L6.80476 5.22949C6.60172 5.43457 6.60172 5.63965 6.80476 5.84473L7.38007 6.42578C7.58311 6.63086 7.78616 6.63086 7.98921 6.42578L10.7304 3.65723L14.9605 7.92969L12.2194 10.6982C12.0163 10.9033 12.0163 11.1084 12.2194 11.3135L12.7947 11.8945C12.9977 12.0996 13.2008 12.0996 13.4038 11.8945L16.145 9.12598L18.3446 11.3818L29.0723 0.546875C29.4333 0.182292 29.8676 0 30.3752 0C30.8828 0 31.3171 0.182292 31.6781 0.546875L34.2839 3.17871C34.6449 3.54329 34.8253 3.98193 34.8253 4.49463C34.8253 5.00732 34.6449 5.44596 34.2839 5.81055L23.59 16.6455ZM2.4054 27.6172C2.45052 27.7995 2.52948 27.9476 2.64229 28.0615L7.04165 32.5049C7.15446 32.6188 7.3011 32.6986 7.48159 32.7441C7.36879 32.972 7.27854 33.1087 7.21086 33.1543L1.2548 35C0.713335 35 0.397483 34.9544 0.30724 34.8633C0.216997 34.7721 0.171875 34.4531 0.171875 33.9062L1.9993 27.8906C2.04443 27.8451 2.17979 27.7539 2.4054 27.6172Z" fill="white"/>
</g>
<defs>
<clipPath id="clip0_120_347">
<rect width="35" height="35" fill="white"/>
</clipPath>
</defs>
</svg>
