<svg width="35" height="35" viewBox="0 0 35 35" fill="none" xmlns="http://www.w3.org/2000/svg">
<path d="M30.625 9.29649C30.6252 8.36991 30.3638 7.4621 29.871 6.67749C29.3781 5.89287 28.6738 5.26331 27.839 4.86123C27.0042 4.45914 26.0728 4.30087 25.1521 4.4046C24.2313 4.50834 23.3586 4.86988 22.6342 5.44763C21.9098 6.02538 21.3632 6.79588 21.0573 7.6705C20.7513 8.54511 20.6985 9.48832 20.9049 10.3916C21.1112 11.2949 21.5683 12.1216 22.2237 12.7767C22.879 13.4317 23.706 13.8884 24.6094 14.0943V14.2184C24.6087 14.7984 24.3781 15.3544 23.968 15.7644C23.5579 16.1745 23.002 16.4052 22.422 16.4059L12.5781 16.4061C11.8099 16.4052 11.0551 16.6078 10.3906 16.9933V14.0943C11.5705 13.8254 12.6099 13.1313 13.3103 12.1446C14.0108 11.1579 14.3232 9.94769 14.1879 8.74521C14.0526 7.54272 13.4791 6.43222 12.5768 5.62583C11.6746 4.81943 10.507 4.37366 9.29689 4.37366C8.08682 4.37366 6.91915 4.81943 6.01693 5.62583C5.11471 6.43222 4.54118 7.54272 4.40588 8.74521C4.27057 9.94769 4.58299 11.1579 5.28345 12.1446C5.98391 13.1313 7.02332 13.8254 8.20314 14.0943V20.9052C7.02332 21.1741 5.98391 21.8682 5.28345 22.855C4.58299 23.8417 4.27057 25.0519 4.40588 26.2543C4.54118 27.4568 5.11471 28.5673 6.01693 29.3737C6.91915 30.1801 8.08682 30.6259 9.29689 30.6259C10.507 30.6259 11.6746 30.1801 12.5768 29.3737C13.4791 28.5673 14.0526 27.4568 14.1879 26.2543C14.3232 25.0519 14.0108 23.8417 13.3103 22.855C12.6099 21.8682 11.5705 21.1741 10.3906 20.9052V20.7811C10.3913 20.2012 10.622 19.6452 11.0321 19.2351C11.4422 18.825 11.9982 18.5943 12.5781 18.5936L22.422 18.5934C23.5819 18.5921 24.6939 18.1307 25.5141 17.3105C26.3342 16.4903 26.7956 15.3783 26.7969 14.2184V14.0943C27.8835 13.8453 28.8535 13.2353 29.5488 12.3639C30.2441 11.4925 30.6234 10.4112 30.625 9.29649ZM6.56251 9.29649C6.56251 8.75568 6.72288 8.22702 7.02334 7.77735C7.32379 7.32768 7.75084 6.97721 8.25049 6.77025C8.75013 6.5633 9.29992 6.50915 9.83034 6.61465C10.3608 6.72016 10.848 6.98058 11.2304 7.36299C11.6128 7.7454 11.8732 8.23262 11.9787 8.76304C12.0842 9.29346 12.0301 9.84325 11.8231 10.3429C11.6162 10.8425 11.2657 11.2696 10.816 11.57C10.3664 11.8705 9.8377 12.0309 9.29689 12.0309C8.57194 12.03 7.87691 11.7417 7.36429 11.2291C6.85168 10.7165 6.56333 10.0214 6.56251 9.29649ZM12.0313 25.7031C12.0313 26.2439 11.8709 26.7725 11.5704 27.2222C11.27 27.6719 10.8429 28.0223 10.3433 28.2293C9.84364 28.4363 9.29385 28.4904 8.76344 28.3849C8.23302 28.2794 7.7458 28.019 7.36339 27.6366C6.98098 27.2542 6.72056 26.7669 6.61505 26.2365C6.50955 25.7061 6.56369 25.1563 6.77065 24.6567C6.97761 24.157 7.32808 23.73 7.77775 23.4295C8.22741 23.1291 8.75608 22.9687 9.29689 22.9687C10.0218 22.9695 10.7169 23.2579 11.2295 23.7705C11.7421 24.2831 12.0304 24.9781 12.0313 25.7031ZM25.7031 12.0309C25.1623 12.0309 24.6337 11.8705 24.184 11.57C23.7343 11.2696 23.3839 10.8425 23.1769 10.3429C22.9699 9.84325 22.9158 9.29346 23.0213 8.76304C23.1268 8.23262 23.3872 7.7454 23.7696 7.36299C24.1521 6.98058 24.6393 6.72016 25.1697 6.61465C25.7001 6.50915 26.2499 6.5633 26.7495 6.77025C27.2492 6.97721 27.6762 7.32768 27.9767 7.77735C28.2771 8.22702 28.4375 8.75568 28.4375 9.29649C28.4367 10.0214 28.1483 10.7165 27.6357 11.2291C27.1231 11.7417 26.4281 12.03 25.7031 12.0309Z" fill="white"/>
</svg>
